<?xml version="1.0" encoding="UTF-8" standalone="no"?>
<!-- Created with Inkscape (http://www.inkscape.org/) -->

<svg
   width="132.29163mm"
   height="107.70869mm"
   viewBox="0 0 132.29163 107.70869"
   version="1.1"
   id="svg1"
   inkscape:version="1.4.2 (ebf0e940d0, 2025-05-08)"
   sodipodi:docname="quibbles-logo-symbolic.svg"
   xmlns:inkscape="http://www.inkscape.org/namespaces/inkscape"
   xmlns:sodipodi="http://sodipodi.sourceforge.net/DTD/sodipodi-0.dtd"
   xmlns="http://www.w3.org/2000/svg"
   xmlns:svg="http://www.w3.org/2000/svg">
  <sodipodi:namedview
     id="namedview1"
     pagecolor="#ffffff"
     bordercolor="#000000"
     borderopacity="0.25"
     inkscape:showpageshadow="2"
     inkscape:pageopacity="0.0"
     inkscape:pagecheckerboard="0"
     inkscape:deskcolor="#d1d1d1"
     inkscape:document-units="mm"
     inkscape:zoom="0.87214506"
     inkscape:cx="817.52455"
     inkscape:cy="574.44572"
     inkscape:window-width="2520"
     inkscape:window-height="1363"
     inkscape:window-x="26"
     inkscape:window-y="23"
     inkscape:window-maximized="0"
     inkscape:current-layer="layer1"
     showgrid="false" />
  <defs
     id="defs1" />
  <g
     inkscape:label="Layer 1"
     inkscape:groupmode="layer"
     id="layer1"
     transform="translate(111.38947,27.781497)">
    <path
       id="path1"
       style="stroke-width:0.0107702"
       class="ColorScheme-Text"
       d="m -66.442919,-27.731877 c -0.796996,0.05385 -1.788095,0.140018 -2.208134,0.204639 -0.409268,0.06462 -1.335036,0.194006 -2.04587,0.290938 -0.710833,0.09693 -1.51883,0.247668 -1.798857,0.33383 -0.280024,0.08616 -0.613866,0.150895 -0.743107,0.150895 -0.129243,0 -0.484432,0.06473 -0.785999,0.150895 -0.301566,0.08616 -0.861808,0.23698 -1.249536,0.344682 -1.820166,0.47389 -2.735812,0.753727 -4.308264,1.335319 -0.5062,0.183094 -1.044494,0.377132 -1.195276,0.430982 -0.150784,0.04308 -0.366254,0.129082 -0.484725,0.182934 -0.107702,0.06462 -0.398674,0.193572 -0.63562,0.301274 -0.236945,0.09693 -0.570864,0.248102 -0.753959,0.323494 -1.120102,0.495429 -4.081909,2.024856 -4.760433,2.455664 -0.258484,0.161554 -0.484453,0.290422 -0.516764,0.290422 -0.03231,0 -0.19398,0.08617 -0.355534,0.204639 -0.161553,0.107702 -0.775513,0.517126 -1.367875,0.904854 -2.864876,1.874018 -4.943182,3.586676 -7.571114,6.214608 -3.521864,3.521861 -5.794824,6.5265837 -8.153504,10.7915891 -0.78622,1.4216687 -2.44452,4.9757268 -2.74609,5.9019653 -0.0538,0.1507831 -0.19373,0.5388564 -0.32298,0.8619629 -0.62467,1.6263025 -1.17434,3.446155 -1.61592,5.3309408 -0.17232,0.7646849 -0.3767,1.6153839 -0.44132,1.8846399 -0.0646,0.269256 -0.16164,0.797214 -0.21549,1.18494 -0.0431,0.387728 -0.16137,1.206222 -0.24753,1.830896 -0.34465,2.358678 -0.40936,3.382137 -0.42013,6.839376 -0.0108,3.661873 -0.0109,3.629292 0.52762,7.377327 0.0862,0.624673 0.23681,1.44317 0.32298,1.830896 0.0754,0.387731 0.24799,1.163358 0.37724,1.723409 0.11847,0.560049 0.25827,1.163078 0.31212,1.346172 0.35542,1.270887 0.47401,1.647859 0.56017,1.906343 0.0538,0.150784 0.13994,0.441321 0.19379,0.645955 0.0862,0.344649 0.65673,1.971113 0.85059,2.401921 0.0539,0.11847 0.17291,0.43096 0.28061,0.700216 0.76468,1.99249 2.40129,5.212514 3.74757,7.377327 0.30156,0.47389 0.78623,1.217151 1.08779,1.647962 0.30157,0.441576 0.62491,0.893949 0.71107,1.023193 2.19713,3.241836 6.106665,7.270072 10.059334,10.361125 1.217034,0.958551 2.810982,2.10013 2.918684,2.10013 0.02154,0 0.355379,0.215469 0.743108,0.484725 0.398497,0.269256 0.732501,0.484725 0.764811,0.484725 0.03231,0 0.25828,0.128869 0.516764,0.290421 1.130873,0.721603 3.909716,2.12196 5.729883,2.886646 0.947779,0.398499 1.874228,0.796905 2.068091,0.872298 0.376958,0.172323 2.983085,1.001822 3.909322,1.249536 3.306458,0.904698 4.178679,1.087523 6.031156,1.324467 0.796997,0.09693 1.949683,0.247665 2.552816,0.33383 1.561682,0.215402 7.948173,0.21531 9.692948,-0.01085 1.927869,-0.247719 3.45736,-0.484482 4.232817,-0.656808 1.540139,-0.333875 3.479088,-0.818395 3.985286,-1.001489 0.150783,-0.04308 0.559775,-0.172387 0.91519,-0.280086 3.554172,-1.066252 7.614704,-2.897134 10.834998,-4.889624 1.690923,-1.044713 2.325979,-1.464717 3.349149,-2.240174 1.432438,-1.07702 1.432759,-1.077235 2.014347,0.107487 0.603134,1.217036 0.99064,2.735743 1.195276,4.70669 0.161552,1.583222 0.387914,2.487929 1.044898,4.081921 0.807765,1.949405 3.091128,5.137696 4.566646,6.365503 1.033944,0.861615 2.64914,1.852322 4.512386,2.76779 0.98009,0.484659 1.971189,0.947883 2.208134,1.034045 1.486291,0.538509 1.604941,0.559656 3.015837,0.559656 h 1.399914 l 1.346171,-0.570508 c 0.743146,-0.312336 1.443187,-0.614242 1.561662,-0.657324 0.118472,-0.05385 0.430963,-0.171867 0.700216,-0.279569 0.269259,-0.09693 0.6463931,-0.248188 0.8402586,-0.334347 0.1938628,-0.08616 0.4088987,-0.150378 0.4950602,-0.150378 0.1723258,0 1.9386467,-0.764985 2.7894938,-1.195793 1.0447125,-0.538509 1.9605251,-0.775147 3.0375407,-0.775147 1.033944,0 1.6587481,0.172373 3.55430502,0.958598 1.71246268,0.700067 3.65081068,0.710477 5.06170658,0.02119 0.8831606,-0.420037 1.9709386,-1.249286 3.058728,-2.304769 0.5815912,-0.581592 1.0124268,-0.904664 1.227832,-0.947746 0.3984996,-0.08616 1.4755501,0.01085 2.5202601,0.215491 1.206267,0.236948 2.897204,0.183144 4.28656,-0.129191 0.656984,-0.150784 1.378457,-0.301681 1.615405,-0.355534 0.236942,-0.04308 0.625018,-0.140017 0.861963,-0.204639 0.236945,-0.06462 0.548916,-0.140286 0.699699,-0.172599 0.387729,-0.08616 1.077213,-0.688856 1.249536,-1.098124 0.323107,-0.764686 0.107475,-1.637013 -0.506429,-2.100131 -0.204632,-0.15078 -0.678357,-0.355919 -1.066085,-0.474389 C 18.157107,69.08148 15.992493,68.004982 14.786231,67.197217 13.612277,66.400221 12.750738,65.549258 12.007589,64.461466 11.490623,63.686006 10.53158,62.727405 9.5622604,62.005802 8.2052125,60.9934 5.6854079,60.411886 3.0897872,60.519588 c -0.7754593,0.03231 -1.604803,0.107544 -1.841748,0.182935 -0.2369449,0.06462 -0.66788311,0.193841 -0.9694499,0.269234 -1.7878531,0.51697 -3.759034,0.495532 -5.0622233,-0.05374 -0.8723868,-0.366189 -2.4340837,-1.173854 -2.9941325,-1.550809 -0.9046977,-0.613902 -2.3693285,-2.024816 -3.1124715,-2.994133 -0.344649,-0.463122 -0.958442,-1.454217 -1.346171,-2.208134 -0.376957,-0.743144 -0.818586,-1.540126 -0.958598,-1.7663 -0.140012,-0.226177 -0.258382,-0.441564 -0.258382,-0.473873 0,-0.03231 -0.08617,-0.193982 -0.204639,-0.355534 -0.107701,-0.161555 -0.506112,-0.753563 -0.872298,-1.313615 -1.637072,-2.487919 -3.306798,-4.006547 -5.417757,-4.900476 -0.516973,-0.226174 -0.969178,-0.452578 -1.001489,-0.506429 -0.03231,-0.05385 0.474212,-1.173818 1.131197,-2.498555 0.656981,-1.313968 1.195276,-2.477071 1.195276,-2.574004 0,-0.09693 0.04286,-0.194115 0.107487,-0.237194 0.05385,-0.03231 0.15079,-0.215413 0.204638,-0.409278 0.05385,-0.193866 0.204589,-0.613786 0.33383,-0.936893 0.59236,-1.529368 0.872746,-2.35849 1.27124,-3.715536 0.409271,-1.37859 0.559587,-2.014057 1.16272,-4.900476 0.150781,-0.753914 0.377241,-2.444911 0.581877,-4.362008 0.193863,-1.809398 0.258356,-6.171365 0.118339,-7.485331 -0.07539,-0.624673 -0.171976,-1.648058 -0.225826,-2.272729 -0.09694,-1.163185 -0.215469,-1.938305 -0.484725,-3.219959 -0.08616,-0.387729 -0.236897,-1.163358 -0.33383,-1.723409 -0.172323,-0.9908593 -0.517314,-2.3696873 -0.861963,-3.5005614 -0.08616,-0.3015668 -0.204529,-0.689123 -0.258382,-0.8614461 -0.05385,-0.183093 -0.26932,-0.8075525 -0.484725,-1.3999146 -0.215405,-0.5923619 -0.430791,-1.2281079 -0.473873,-1.4004313 -0.140012,-0.5169704 -1.033788,-2.55265366 -1.680001,-3.82353919 -1.001633,-1.99248971 -1.680174,-3.25250281 -2.110982,-3.93102621 -0.269253,-0.4200384 -0.667912,-1.0658486 -0.904854,-1.442806 -0.656985,-1.044711 -2.9938,-4.1360456 -4.038513,-5.3423092 -1.486289,-1.701716 -3.522003,-3.726307 -5.051372,-5.007963 -0.312338,-0.269255 -0.678461,-0.570892 -0.807702,-0.689364 -1.098563,-0.95855 -4.57756,-3.37101 -6.150013,-4.275708 -3.252605,-1.852477 -6.203329,-3.199066 -9.208223,-4.189925 -1.852474,-0.613903 -4.049629,-1.238362 -4.900476,-1.399915 -0.236945,-0.04308 -0.667884,-0.129165 -0.96945,-0.193786 -0.775454,-0.161554 -2.401567,-0.420052 -3.715535,-0.613916 -1.346277,-0.183094 -6.807004,-0.291071 -8.939506,-0.1726 z m 3.820955,3.911906 c 1.045721,10e-4 2.024485,0.04643 2.899565,0.137976 2.00326,0.215404 3.83422,0.462862 4.695837,0.645956 2.078654,0.430808 2.487939,0.527892 3.198771,0.700215 0.796997,0.204634 2.25099,0.656868 2.994133,0.936894 0.236945,0.08616 0.603068,0.2264 0.807702,0.301791 1.766316,0.656983 2.466665,0.95859 4.254521,1.841748 1.130874,0.560051 2.121455,1.055207 2.207617,1.119828 0.08616,0.05385 0.667755,0.398623 1.292428,0.764811 0.926238,0.549281 3.19878,2.04634 3.608048,2.380217 0.06462,0.05385 0.355676,0.26932 0.646472,0.484724 1.798627,1.324737 5.008213,4.383237 6.537586,6.2249435 0.850845,1.0231705 2.487636,3.1880752 3.090767,4.0927734 1.927868,2.8648773 4.157391,7.4421041 5.180563,10.6623983 0.193861,0.5923624 0.409334,1.2495407 0.484724,1.4541748 0.07539,0.204634 0.215277,0.6892086 0.322978,1.0769369 0.09693,0.3877284 0.226233,0.8723023 0.280086,1.0769371 0.236943,0.904697 0.775481,3.780332 1.023194,5.438944 0.150784,1.033942 0.193786,2.035793 0.193786,5.062224 0,4.37271 -0.07522,5.19134 -0.861446,9.262483 -0.08616,0.47389 -0.237332,1.109201 -0.323494,1.410767 -0.08616,0.301565 -0.150379,0.635405 -0.150379,0.743107 0,0.09693 -0.0755,0.409339 -0.150895,0.689364 -0.08616,0.269253 -0.247752,0.786114 -0.344682,1.141532 -0.172326,0.62467 -0.291055,0.969335 -0.646472,1.906344 -0.09693,0.258485 -0.236735,0.635624 -0.312125,0.840258 -0.441582,1.173953 -1.357202,3.252461 -1.992644,4.469495 -1.173953,2.261748 -1.076594,2.12178 -1.507401,2.046387 -0.204634,-0.04308 -0.420106,-0.107814 -0.484725,-0.150896 -0.05385,-0.05385 -0.474127,-0.215601 -0.915706,-0.366385 -0.441581,-0.150783 -1.098245,-0.387604 -1.453659,-0.527617 -0.96932,-0.387728 -3.134686,-0.796853 -5.31027,-1.001489 -1.173951,-0.11847 -1.151979,-0.08622 -1.302763,-1.367875 -0.06462,-0.603131 -0.183424,-1.324448 -0.248046,-1.593701 -0.06462,-0.269253 -0.150788,-0.678765 -0.204639,-0.915707 -0.247713,-1.227807 -1.14125,-3.457291 -1.852083,-4.631242 -0.818536,-1.35705 -2.671071,-3.575729 -3.748092,-4.491198 -1.690926,-1.443209 -4.814384,-3.047674 -6.882267,-3.564641 -1.690923,-0.40927 -2.628069,-0.506346 -4.846733,-0.495577 -1.217036,0 -2.445038,0.04286 -2.746602,0.107487 -0.290797,0.05385 -0.807574,0.140015 -1.130681,0.204639 -1.874018,0.333875 -4.275911,1.357215 -6.13916,2.606559 -3.080281,2.078654 -5.470902,4.868097 -6.752559,7.883757 -0.592362,1.389356 -0.915712,2.348033 -1.120345,3.349666 -0.04308,0.236943 -0.129164,0.645931 -0.193787,0.91519 -0.247715,1.16318 -0.366438,3.317328 -0.237195,4.50205 0.215404,1.938642 0.851364,4.663381 1.292945,5.492688 0.05385,0.09693 0.279737,0.571008 0.505912,1.044898 0.840077,1.787858 1.496964,2.703174 3.047876,4.264856 2.531001,2.52023 4.760506,3.812867 8.034652,4.652946 1.389357,0.355417 1.766492,0.419832 3.015836,0.516764 3.748037,0.301567 7.700613,-0.560076 10.597803,-2.315621 1.604761,-0.98009 3.026471,-2.121672 4.221964,-3.392558 0.613902,-0.656985 1.184562,-1.195275 1.270724,-1.195275 0.236945,0 3.349666,3.133908 3.349666,3.370853 0,0.107702 -0.150817,0.32317 -0.344682,0.484725 -0.49543,0.430807 -3.284852,2.305083 -4.480346,3.026689 -1.152414,0.678524 -5.126727,2.660093 -5.999117,2.972428 -1.766313,0.646216 -2.315599,0.828947 -2.584855,0.904338 -0.183092,0.04308 -0.419996,0.140449 -0.538469,0.194303 -0.495432,0.269253 -2.789403,0.850523 -4.954219,1.24902 -5.245094,0.990859 -10.587294,1.001724 -16.209347,0.01085 -0.5062,-0.08616 -1.152608,-0.225964 -1.454175,-0.312126 -0.290796,-0.08616 -0.83994,-0.22648 -1.206128,-0.312642 -0.376958,-0.09693 -0.979982,-0.247747 -1.346171,-0.344682 -0.743143,-0.193861 -3.457187,-1.077048 -3.801835,-1.227832 -0.118471,-0.05385 -0.700065,-0.301005 -1.292427,-0.537952 -1.260116,-0.527738 -4.027982,-1.874263 -4.95422,-2.412773 -0.355416,-0.215405 -0.721541,-0.419943 -0.807703,-0.46302 -0.08616,-0.03231 -0.280197,-0.151195 -0.430981,-0.258899 -0.150783,-0.09693 -0.764823,-0.50576 -1.378727,-0.893486 -1.281655,-0.829307 -3.500124,-2.488184 -4.598686,-3.435966 -1.206264,-1.04471 -4.265094,-4.135826 -5.180562,-5.245158 -0.872387,-1.033944 -2.735751,-3.500261 -2.735751,-3.597196 0,-0.03231 -0.13972,-0.258277 -0.301271,-0.516764 -1.19549,-1.809393 -1.54034,-2.412606 -2.7466,-4.771285 -0.88316,-1.744773 -1.48618,-3.177414 -2.22933,-5.331458 -0.12924,-0.387726 -0.30184,-0.872303 -0.37723,-1.076937 -0.16155,-0.441579 -0.40894,-1.30292 -0.63511,-2.207617 -0.0862,-0.355418 -0.23681,-0.937092 -0.32297,-1.30328 -0.0969,-0.355418 -0.1726,-0.78619 -0.1726,-0.947745 0,-0.161552 -0.0536,-0.38787 -0.10749,-0.495577 -0.12924,-0.247713 -0.34499,-1.809338 -0.65733,-4.684986 -0.32311,-3.04797 -0.2368,-6.009836 0.29094,-9.800952 0.0862,-0.656982 0.18318,-1.357025 0.21549,-1.561662 0.0754,-0.538509 0.35519,-1.841733 0.786,-3.6080482 0.42004,-1.7232338 0.59256,-2.2942557 1.24954,-4.03903 0.0862,-0.236945 0.22596,-0.6135675 0.31212,-0.839742 0.75391,-2.0140303 2.64964,-5.8269893 3.69435,-7.4532918 1.292431,-1.9924899 2.251287,-3.3496284 2.8975,-4.0927734 0.129242,-0.1507831 0.581533,-0.6782238 1.012341,-1.1844239 0.915469,-1.0770216 2.272107,-2.4881397 3.618384,-3.7697957 3.48955,-3.338767 7.485492,-5.977162 12.267468,-8.120435 0.355417,-0.161553 0.742892,-0.344656 0.850594,-0.409277 0.118471,-0.06462 0.333941,-0.150707 0.484725,-0.193787 0.150782,-0.05385 0.549191,-0.194252 0.872298,-0.323494 1.50783,-0.581592 4.340556,-1.432423 5.869926,-1.7663 3.35223,-0.726989 7.092188,-1.120791 10.22935,-1.117762 z m 24.144779,19.5982872 c -0.198741,0.00151 -0.417988,0.020291 -0.663008,0.055294 -0.258488,0.043081 -1.378682,1.0983491 -5.385201,5.07255862 -2.778718,2.76794558 -5.202026,5.22362278 -5.374349,5.44979658 -0.581591,0.7754566 -0.484735,2.1434451 0.193786,2.8111979 0.236945,0.2369449 0.861642,0.5922119 1.023194,0.5922119 0.08616,0 2.002977,0.8402728 3.295406,1.4541748 1.06625,0.506201 1.798723,0.807702 1.917195,0.807702 0.07539,0 0.183428,0.04279 0.248047,0.09663 0.05385,0.05385 0.409125,0.226535 0.796851,0.38809 0.387728,0.161552 0.947886,0.409225 1.238684,0.538469 0.937009,0.441576 1.701719,0.77548 2.315621,1.023193 0.323106,0.129242 0.753447,0.312261 0.958081,0.398425 0.818536,0.366184 2.057412,-0.09682 2.48822,-0.936893 0.323107,-0.624673 0.290823,-1.475755 -0.06459,-2.003496 -0.355418,-0.516972 -0.484684,-0.614058 -1.227832,-0.904854 -0.59236,-0.247716 -1.076939,-0.462871 -2.369365,-1.0552324 -0.387726,-0.1723231 -1.184787,-0.5279498 -1.777152,-0.7756633 -0.592362,-0.2477162 -1.313839,-0.5704578 -1.615406,-0.6996989 -1.044712,-0.484661 -1.766362,-0.808005 -2.046386,-0.9157063 -0.150783,-0.053851 -0.269234,-0.1618019 -0.269234,-0.2371949 0,-0.07539 1.798497,-1.9384592 3.995621,-4.1248128 2.390989,-2.39098796 4.049587,-4.1249813 4.146517,-4.3511556 0.312335,-0.743145 0.129339,-1.6259438 -0.463021,-2.1967651 -0.35542,-0.3392617 -0.76544,-0.4908187 -1.361674,-0.4862753 z m -40.351542,3.867981 c -0.323107,0.0107712 -0.68923,0.0322848 -0.807702,0.0645955 -0.312337,0.0753914 -0.80798,0.57095193 -0.980302,0.96944987 -0.150784,0.35541693 -0.183063,1.18467853 -0.0646,1.62625733 0.09693,0.3338769 0.678658,0.9042346 1.174089,1.1627198 0.226174,0.1077021 0.8292,0.4632452 1.346171,0.7648112 0.527739,0.3123361 1.421904,0.818861 2.003495,1.1311971 0.570821,0.3015663 1.400088,0.7647087 1.830896,1.0231933 0.44158,0.2584847 0.807432,0.4630209 0.839742,0.4630209 0.02154,0 0.635935,0.3551907 1.35754,0.7859985 0.732374,0.4415789 1.669159,0.9804709 2.078426,1.2066447 0.42004,0.2261738 1.001632,0.548999 1.292428,0.7105509 0.753915,0.4200393 0.721543,0.5923367 -0.280087,1.3570227 -0.893929,0.689295 -1.744788,1.357342 -4.28656,3.371371 -0.937008,0.743146 -1.992243,1.572492 -2.34766,1.841748 -0.51697,0.409268 -0.689393,0.613406 -0.829407,1.022677 -0.215404,0.635441 -0.215404,0.851202 0,1.475878 0.215404,0.656981 0.754053,1.119964 1.378727,1.206128 0.926237,0.140013 1.195042,0.02147 2.864425,-1.303279 0.861617,-0.68929 1.659198,-1.324684 1.777669,-1.421619 0.118472,-0.107701 0.516445,-0.420191 0.882634,-0.700216 0.366186,-0.28003 0.732827,-0.570565 0.808219,-0.645955 0.161553,-0.150783 1.367691,-1.120117 3.995622,-3.198771 1.97095,-1.550911 2.229321,-1.874215 2.229321,-2.7466025 0,-0.9154689 -0.474086,-1.6047815 -1.454175,-2.1109823 -0.732374,-0.3877283 -1.453771,-0.7965976 -2.89698,-1.6474446 -0.753915,-0.4523492 -1.389226,-0.8185547 -1.410767,-0.8185547 -0.02154,0 -0.409531,-0.2154696 -0.851111,-0.484725 -0.452349,-0.2692553 -0.839906,-0.4847249 -0.861446,-0.4847249 -0.02154,0 -0.646353,-0.3557067 -1.378727,-0.7865153 -0.721605,-0.4308089 -1.400052,-0.8291354 -1.486214,-0.8614461 -0.08616,-0.043081 -0.301631,-0.1615319 -0.484725,-0.2692342 -0.172323,-0.1077021 -0.635466,-0.3767256 -1.023194,-0.5813599 -0.387726,-0.2154041 -0.958388,-0.5388262 -1.270723,-0.7219197 -0.312337,-0.18309408 -0.592457,-0.33382984 -0.624768,-0.33382984 -0.02154,0 -0.247428,-0.12938506 -0.505912,-0.29093831 -0.915469,-0.60313198 -1.400445,-0.78591662 -2.014348,-0.77514649 z m 36.487696,42.9999598 c 0.343302,0.0021 0.971412,0.113118 1.229899,0.242362 0.161552,0.08616 0.430741,0.150895 0.603064,0.150895 0.172326,0 0.495064,0.07507 0.699698,0.161231 0.215403,0.08616 0.603398,0.161747 0.851111,0.161747 0.710838,0 0.786317,0.08604 0.624768,0.732255 -0.172326,0.732374 -0.06486,1.141567 0.376722,1.486214 1.001631,0.764685 2.531111,0.129575 2.531111,-1.044381 0,-0.172323 0.06465,-0.344843 0.140043,-0.366385 0.06462,-0.03231 0.592333,0.01054 1.152385,0.107486 0.560051,0.08616 1.367881,0.20513 1.777152,0.269751 1.561682,0.247717 2.897119,0.549268 2.983281,0.678512 0.04308,0.06462 0.0863,0.365928 0.0863,0.645955 0,0.710832 0.419952,1.152385 1.076937,1.152385 0.376957,0 0.516961,-0.06428 0.88315,-0.430465 0.247716,-0.236943 0.473518,-0.430981 0.495061,-0.430981 0.03231,0 0.258632,0.08616 0.495577,0.204638 0.247713,0.107701 0.807957,0.344523 1.249536,0.527617 0.441579,0.172323 1.055373,0.419996 1.346171,0.538468 l 0.538468,0.215491 0.03256,0.571024 c 0.02156,0.323106 0.08575,0.635161 0.150379,0.710551 0.06462,0.08616 0.08649,0.366503 0.04341,0.72192 -0.140015,1.109332 0.441478,1.787488 1.55081,1.787488 0.312337,0 0.796913,0.086 1.076937,0.182935 0.484661,0.172324 0.53837,0.172746 1.001489,-0.01034 0.269256,-0.09693 0.59276,-0.280391 0.732772,-0.38809 0.129241,-0.118472 0.301248,-0.214974 0.365869,-0.214974 0.193866,0 1.787858,2.487521 2.584855,4.027661 0.850844,1.626304 0.904616,1.734111 1.281576,2.326473 0.560049,0.861619 1.271339,1.755794 2.100646,2.617412 l 0.818555,0.839742 -0.03256,0.88315 c -0.02156,0.495429 -0.107461,0.958738 -0.172082,1.044897 -0.215403,0.258487 -0.495577,1.055352 -0.495577,1.410767 0,1.087794 1.31367,2.143538 2.6814896,2.143538 0.5600515,0 0.7003057,-0.04328 1.120345,-0.366385 0.6246733,-0.473888 0.9156538,-0.624714 1.0448975,-0.549321 0.064624,0.03231 0.3339725,0.03222 0.6247681,-0.01085 0.4092654,-0.05385 0.5918924,-0.161509 0.958081,-0.538468 0.516972,-0.527738 0.571124,-0.538216 1.4004313,-0.301274 0.4738899,0.140012 0.9585468,0.161502 2.3802165,0.129191 1.72323651,-0.04308 2.28297815,-0.129227 3.3600016,-0.473873 0.2692558,-0.08616 0.9587971,-0.194035 1.5296224,-0.226343 1.1954906,-0.07539 1.4109836,0.01099 1.3032797,0.506429 -0.032308,0.172323 -2.68e-5,0.462867 0.064596,0.645956 0.09693,0.28003 0.075168,0.430748 -0.097152,0.807702 -0.2584873,0.560055 -0.2691482,0.721849 -0.053744,1.120346 0.4631214,0.9047 1.3679173,1.130747 2.1218343,0.527616 0.4092681,-0.323106 0.4412978,-0.333638 0.710551,-0.172083 0.7862252,0.463119 1.637283,0.301119 2.0680908,-0.398942 l 0.2475301,-0.409277 0.2583822,0.312642 c 0.1400122,0.172324 0.5171529,0.635466 0.8402589,1.023194 0.57082,0.710832 1.561523,1.507685 2.563151,2.089278 0.926243,0.527738 0.528096,0.689385 -1.108976,0.420129 -0.624673,-0.09693 -1.432752,-0.2048 -1.809709,-0.226342 -0.5708221,-0.05385 -0.7105819,-0.0968 -0.8505941,-0.322978 -0.2369423,-0.366186 -0.904811,-0.678512 -1.4433227,-0.678512 -0.5708201,0 -1.0661514,0.301449 -1.5508098,0.936894 -0.5062009,0.667753 -0.6463866,1.184571 -0.4309814,1.680001 l 0.1617472,0.38809 -0.4092773,0.376721 C 5.0713998,73.012786 4.144882,73.734279 4.058723,73.734279 h -5.167e-4 c -2.498e-4,-3.6e-5 -0.0013,-4.43e-4 -0.00155,-5.16e-4 h -5.168e-4 c -0.029992,-0.01802 -0.03989,-0.311981 -0.029456,-0.656291 0.010769,-0.613902 -0.010725,-0.678652 -0.3338297,-0.96945 -0.7646855,-0.68929 -1.8526001,-0.172414 -1.8526001,0.872298 0,0.183095 0.075152,0.452797 0.1720825,0.603581 0.096935,0.140012 0.1510806,0.301519 0.1080038,0.33383 -0.064624,0.07539 -0.2584436,0.01039 -1.62625737,-0.528133 -1.17395621,-0.452348 -1.77740193,-0.603014 -3.10213623,-0.732255 -1.9601735,-0.193866 -3.0046213,-1.16e-4 -4.997111,0.936893 -0.5492803,0.258484 -1.0448738,0.463538 -1.109493,0.463538 -0.053853,0 -0.2583086,0.07498 -0.4521688,0.150378 -0.1938655,0.08616 -0.6894563,0.291054 -1.1094926,0.441834 -0.753917,0.290796 -2.304702,0.915603 -2.907833,1.174088 -1.346277,0.592359 -1.454175,0.591984 -1.454175,0.08578 0,-0.538506 -0.215419,-1.055134 -0.613916,-1.518253 l -0.387573,-0.463021 0.193787,-0.506429 c 0.409268,-1.033938 0.323147,-1.443239 -0.538469,-2.52026 -0.861621,-1.077021 -1.421751,-1.260052 -2.595707,-0.807702 -0.3985,0.150784 -0.77537,0.40898 -1.076937,0.71055 l -0.452169,0.484725 -0.54932,-0.182934 c -0.667755,-0.215405 -1.27087,-0.22627 -1.7663,-0.01085 -0.376957,0.161555 -1.044898,0.743463 -1.044898,0.926558 0,0.05385 -0.09694,0.09664 -0.204639,0.09664 -0.226173,0 -1.561502,-1.561648 -1.744596,-2.035535 -0.09693,-0.236945 -0.05409,-0.312325 0.376721,-0.678511 0.581588,-0.506198 0.765025,-0.969307 0.657324,-1.766301 -0.150783,-1.195496 -1.120537,-1.938432 -2.369881,-1.809191 l -0.548803,0.06459 -0.193787,-1.389579 c -0.107701,-0.753914 -0.172516,-1.529382 -0.161747,-1.701705 0.04308,-0.301567 0.07516,-0.32322 0.58136,-0.355534 0.430808,-0.03231 0.603206,-0.09669 0.894002,-0.376721 0.710832,-0.678524 0.850697,-1.497054 0.387573,-2.175578 -0.215403,-0.323106 -0.269345,-0.495287 -0.215491,-0.796851 0.193865,-1.206265 0.193955,-1.270923 0.01085,-1.637109 -0.215405,-0.398499 -0.398437,-0.581802 -0.807702,-0.775663 -0.150784,-0.07539 -0.484539,-0.268994 -0.732255,-0.441317 -0.344644,-0.236945 -0.635358,-0.334078 -1.076937,-0.366386 -0.667753,-0.04308 -0.980016,0.05375 -1.486214,0.463021 l -0.323495,0.269234 -0.538468,-0.732255 c -0.463118,-0.646213 -1.701644,-2.078778 -2.714046,-3.145027 -0.247713,-0.269259 -0.33394,-0.441431 -0.280087,-0.592212 0.04308,-0.118472 0.09732,-0.441896 0.118856,-0.72192 0.03231,-0.280024 0.118475,-0.559712 0.204639,-0.635103 0.09693,-0.07539 0.150378,-0.334111 0.150378,-0.711068 0,-0.516969 -0.04295,-0.624746 -0.322977,-0.894002 -0.678524,-0.635442 -1.830992,-0.506058 -2.455665,0.290938 -0.355415,0.430808 -0.473587,0.441902 -0.979785,0.04341 -0.333877,-0.258487 -0.926572,-0.657088 -1.540474,-1.034045 -0.09693,-0.05385 -0.549058,-0.301443 -0.990637,-0.527617 l -0.818555,-0.430981 v -0.72192 c 0,-0.678524 -0.02158,-0.743082 -0.344682,-1.012341 -0.301567,-0.258484 -0.420032,-0.290528 -0.88315,-0.236678 -0.355418,0.03231 -0.581582,0.118289 -0.678512,0.24753 -0.08616,0.118473 -0.247832,0.323092 -0.355533,0.473873 -0.172323,0.236947 -0.2263,0.258599 -0.560173,0.150895 -0.333877,-0.118472 -0.764515,-0.23712 -2.153874,-0.63562 -0.344646,-0.09693 -0.624768,-0.215302 -0.624768,-0.258382 0,-0.05385 0.129303,-0.312187 0.280086,-0.592212 0.247716,-0.452347 0.291025,-0.484856 0.50643,-0.366386 0.129241,0.06462 0.602884,0.129191 1.055232,0.129191 0.678524,0.01077 0.872739,-0.03232 1.066602,-0.204639 0.344649,-0.312335 0.645955,-0.958171 0.645955,-1.37821 0,-0.193863 0.03236,-0.398671 0.07545,-0.430982 0.02693,-0.02693 0.109844,-0.03839 0.224276,-0.03772 z m 8.789644,3.618383 c -0.03046,-8.53e-4 -0.06087,-4.48e-4 -0.09095,0.0016 -0.144391,0.0096 -0.279923,0.05255 -0.360701,0.133325 -0.193863,0.193865 -0.150813,0.67895 0.0646,0.872815 0.538509,0.49543 1.2278,-0.140387 0.883151,-0.797368 -0.07068,-0.129581 -0.2829,-0.204347 -0.496094,-0.210323 z m 5.228105,2.494938 c -0.06328,-0.0013 -0.133001,0.03097 -0.294556,0.0956 -0.560048,0.226173 -0.516999,1.162996 0.0646,1.335319 0.484661,0.140012 0.883151,-0.139509 0.883151,-0.613399 0,-0.409268 -0.07532,-0.538745 -0.398426,-0.711068 -0.134628,-0.07001 -0.191492,-0.105107 -0.254764,-0.106454 z m 4.670516,3.326929 c -0.387731,0 -0.538883,0.06441 -0.797368,0.312126 -0.236947,0.247714 -0.312125,0.419919 -0.312125,0.732255 0,0.495429 0.258398,0.786601 0.872298,1.002006 0.495432,0.183095 0.948156,0.02146 1.206644,-0.42013 0.269256,-0.463118 0.22606,-0.818728 -0.150895,-1.249536 -0.290795,-0.323106 -0.398517,-0.376721 -0.818554,-0.376721 z m -6.555156,0.2651 c -0.08212,0.0013 -0.165855,0.0092 -0.230477,0.02532 v 5.16e-4 c -0.387728,0.07539 -0.785998,0.635006 -0.785998,1.098125 0,0.613902 0.37693,0.915706 1.152384,0.915706 0.516972,0 0.624937,-0.03246 0.851111,-0.290938 0.140012,-0.172323 0.258382,-0.43066 0.258382,-0.592212 0,-0.333877 -0.473879,-1.098641 -0.678511,-1.098641 -0.07539,0 -0.226212,-0.0219 -0.344682,-0.04341 -0.05924,-0.01077 -0.140088,-0.01582 -0.222209,-0.01447 z m 11.798763,2.11615 c -0.114432,-0.0013 -0.23532,0.03097 -0.396875,0.0956 -0.592359,0.236942 -0.872806,1.313927 -0.463538,1.830896 0.172323,0.226177 0.291168,0.269234 0.797368,0.269234 0.796997,0 1.141532,-0.301588 1.141532,-1.023194 0,-0.516972 -0.183411,-0.786057 -0.72192,-1.066084 -0.13463,-0.07001 -0.242135,-0.10511 -0.356567,-0.106454 z m -4.542358,1.190625 c -0.126275,0.0042 -0.248786,0.05354 -0.345716,0.154513 -0.452348,0.452348 0.107283,1.314098 0.624252,0.96945 0.387728,-0.247714 0.46318,-0.46349 0.280086,-0.797368 -0.127897,-0.215402 -0.348159,-0.333643 -0.558622,-0.326595 z m 7.631058,2.585889 c -0.127891,-0.0027 -0.25485,0.06722 -0.470255,0.207222 -0.484659,0.301567 -0.646222,0.829552 -0.409277,1.324984 0.204636,0.420036 0.581914,0.559789 1.131197,0.441317 0.441576,-0.09693 0.667333,-0.463226 0.624251,-1.034046 -0.03231,-0.387729 -0.08609,-0.505914 -0.398425,-0.710551 -0.220787,-0.150783 -0.349594,-0.22623 -0.477491,-0.228926 z m -5.760888,2.15284 c -0.131937,-0.004 -0.272287,0.03076 -0.503845,0.100769 -1.001633,0.290796 -1.367478,1.680069 -0.635104,2.369364 0.226177,0.215403 0.387886,0.258383 0.904855,0.258383 0.516972,0 0.678247,-0.04306 0.915189,-0.269235 0.872389,-0.807768 0.753747,-1.917202 -0.226343,-2.326473 -0.19925,-0.08616 -0.322817,-0.128768 -0.454752,-0.132808 z m 4.950602,3.119706 c -0.136972,0.004 -0.250839,0.09825 -0.45682,0.298173 -0.183091,0.193861 -0.312125,0.430738 -0.312125,0.603064 0,0.323106 0.527678,0.915707 0.807702,0.915707 0.796997,0 1.087554,-1.302963 0.376722,-1.669149 -0.188479,-0.09895 -0.308942,-0.150888 -0.415479,-0.147795 z m -5.074626,2.471167 c -0.166939,-0.0081 -0.336363,0.03485 -0.465604,0.131775 -0.107702,0.06462 -0.215736,0.301876 -0.248047,0.517281 -0.118473,0.689295 0.495426,1.066237 1.087789,0.678512 0.333875,-0.215406 0.377012,-0.883129 0.07545,-1.152385 -0.118475,-0.107704 -0.282646,-0.167103 -0.449585,-0.175183 z m 19.4267215,0.638204 c -0.5708226,0 -0.6783228,0.03246 -0.9260416,0.290938 -0.3877257,0.40927 -0.7322551,1.335333 -0.7322551,1.949235 0,0.441577 0.053367,0.570735 0.3441651,0.872299 0.3661859,0.37696 0.8508242,0.64604 1.5616617,0.861446 0.3877257,0.129241 0.4849249,0.118587 0.85111088,-0.05374 0.23694495,-0.11847 0.58144801,-0.44154 0.79685059,-0.743107 0.34464889,-0.484659 0.37723796,-0.592444 0.37723796,-1.303279 0,-0.624673 -0.0432485,-0.840075 -0.22634278,-1.087789 -0.31233532,-0.420031 -1.23862174,-0.77523 -2.04638675,-0.785999 z m -8.9296875,1.305864 c -0.168286,-0.0081 -0.338107,0.06212 -0.526583,0.212906 -0.215405,0.172326 -0.280086,0.311917 -0.280086,0.624252 0,0.516972 0.280046,0.786515 0.818555,0.786515 0.7754535,0 1.0772488,-0.829363 0.506429,-1.367875 -0.183094,-0.161554 -0.350029,-0.247723 -0.518315,-0.255798 z m 2.4820191,2.587439 c -0.2029513,0.0011 -0.2995376,0.05911 -0.4449341,0.220658 -0.4415816,0.47389 -0.5170885,0.72182 -0.3555339,1.184941 0.1723231,0.527738 0.7109699,0.893699 1.1740886,0.785998 0.7862279,-0.172323 1.1631154,-1.346047 0.6030639,-1.873787 -0.1615519,-0.150784 -0.4527474,-0.26948 -0.7327718,-0.301791 -0.096933,-0.01077 -0.1762614,-0.01636 -0.2439127,-0.01602 z"
       sodipodi:nodetypes="ccsssscccccccsccsccccccccccccccccccccscsccccccccccccccccccsccccsscscccccccsccccccccccccccsscccscscsccccccccccscccccccccccccscccccccccccccscccscsscccccccscccscccccccccccccccccccssccccccccccccccccccsccccccsccccccccccccccccssccccscscscccccccsccscccsccccccccscccccccccccsccsccscsccccssccccscsccscccssscscccccccscccsccccccssccccccscccccccccccccccsccccscccccscccccscccscccscccccssccccccccccccccccccccccsccccccsccccccsccccsccsssccscccsccscscccscccsscsssccccsssccccccscccccscccscccscsscssccccsccsccccsccsssscsccccccc" />
  </g>
</svg>
