<?xml version="1.0" encoding="UTF-8" standalone="no"?>
<svg
   version="1.0"
   width="1230pt"
   height="1005pt"
   viewBox="0 0 1231.6918 1006.3824"
   preserveAspectRatio="xMidYMid"
   id="svg16"
   xmlns="http://www.w3.org/2000/svg"
   xmlns:svg="http://www.w3.org/2000/svg">
  <defs
     id="defs16" />
  <g
     transform="matrix(0.1,0,0,-0.1,-64.676755,2792.5613)"
     id="g16">
    <path
       d="m 4820,27921 c -74,-5 -166,-13 -205,-19 -38,-6 -124,-18 -190,-27 -66,-9 -141,-23 -167,-31 -26,-8 -57,-14 -69,-14 -12,0 -45,-6 -73,-14 -28,-8 -80,-22 -116,-32 -169,-44 -254,-70 -400,-124 -47,-17 -97,-35 -111,-40 -14,-4 -34,-12 -45,-17 -10,-6 -37,-18 -59,-28 -22,-9 -53,-23 -70,-30 -104,-46 -379,-188 -442,-228 -24,-15 -45,-27 -48,-27 -3,0 -18,-8 -33,-19 -15,-10 -72,-48 -127,-84 -266,-174 -459,-333 -703,-577 -327,-327 -538,-606 -757,-1002 -73,-132 -227,-462 -255,-548 -5,-14 -18,-50 -30,-80 -58,-151 -109,-320 -150,-495 -16,-71 -35,-150 -41,-175 -6,-25 -15,-74 -20,-110 -4,-36 -15,-112 -23,-170 -32,-219 -38,-314 -39,-635 -1,-340 -1,-337 49,-685 8,-58 22,-134 30,-170 7,-36 23,-108 35,-160 11,-52 24,-108 29,-125 33,-118 44,-153 52,-177 5,-14 13,-41 18,-60 8,-32 61,-183 79,-223 5,-11 16,-40 26,-65 71,-185 223,-484 348,-685 28,-44 73,-113 101,-153 28,-41 58,-83 66,-95 204,-301 567,-675 934,-962 113,-89 261,-195 271,-195 2,0 33,-20 69,-45 37,-25 68,-45 71,-45 3,0 24,-12 48,-27 105,-67 363,-197 532,-268 88,-37 174,-74 192,-81 35,-16 277,-93 363,-116 307,-84 388,-101 560,-123 74,-9 181,-23 237,-31 145,-20 738,-20 900,1 179,23 321,45 393,61 143,31 323,76 370,93 14,4 52,16 85,26 330,99 707,269 1006,454 157,97 216,136 311,208 133,100 133,100 187,-10 56,-113 92,-254 111,-437 15,-147 36,-231 97,-379 75,-181 287,-477 424,-591 96,-80 246,-172 419,-257 91,-45 183,-88 205,-96 138,-50 149,-52 280,-52 h 130 l 125,53 c 69,29 134,57 145,61 11,5 40,16 65,26 25,9 60,23 78,31 18,8 38,14 46,14 16,0 180,71 259,111 97,50 182,72 282,72 96,0 154,-16 330,-89 159,-65 339,-66 470,-2 82,39 183,116 284,214 54,54 94,84 114,88 37,8 137,-1 234,-20 112,-22 269,-17 398,12 61,14 128,28 150,33 22,4 58,13 80,19 22,6 51,13 65,16 36,8 100,64 116,102 30,71 10,152 -47,195 -19,14 -63,33 -99,44 -95,27 -296,127 -408,202 -109,74 -189,153 -258,254 -48,72 -137,161 -227,228 -126,94 -360,148 -601,138 -72,-3 -149,-10 -171,-17 -22,-6 -62,-18 -90,-25 -166,-48 -349,-46 -470,5 -81,34 -226,109 -278,144 -84,57 -220,188 -289,278 -32,43 -89,135 -125,205 -35,69 -76,143 -89,164 -13,21 -24,41 -24,44 0,3 -8,18 -19,33 -10,15 -47,70 -81,122 -152,231 -307,372 -503,455 -48,21 -90,42 -93,47 -3,5 44,109 105,232 61,122 111,230 111,239 0,9 4,18 10,22 5,3 14,20 19,38 5,18 19,57 31,87 55,142 81,219 118,345 38,128 52,187 108,455 14,70 35,227 54,405 18,168 24,573 11,695 -7,58 -16,153 -21,211 -9,108 -20,180 -45,299 -8,36 -22,108 -31,160 -16,92 -48,220 -80,325 -8,28 -19,64 -24,80 -5,17 -25,75 -45,130 -20,55 -40,114 -44,130 -13,48 -96,237 -156,355 -93,185 -156,302 -196,365 -25,39 -62,99 -84,134 -61,97 -278,384 -375,496 -138,158 -327,346 -469,465 -29,25 -63,53 -75,64 -102,89 -425,313 -571,397 -302,172 -576,297 -855,389 -172,57 -376,115 -455,130 -22,4 -62,12 -90,18 -72,15 -223,39 -345,57 -125,17 -632,27 -830,16 z m 624,-376 c 186,-20 356,-43 436,-60 193,-40 231,-49 297,-65 74,-19 209,-61 278,-87 22,-8 56,-21 75,-28 164,-61 229,-89 395,-171 105,-52 197,-98 205,-104 8,-5 62,-37 120,-71 86,-51 297,-190 335,-221 6,-5 33,-25 60,-45 167,-123 465,-407 607,-578 79,-95 231,-296 287,-380 179,-266 386,-691 481,-990 18,-55 38,-116 45,-135 7,-19 20,-64 30,-100 9,-36 21,-81 26,-100 22,-84 72,-351 95,-505 14,-96 18,-189 18,-470 0,-406 -7,-482 -80,-860 -8,-44 -22,-103 -30,-131 -8,-28 -14,-59 -14,-69 0,-9 -7,-38 -14,-64 -8,-25 -23,-73 -32,-106 -16,-58 -27,-90 -60,-177 -9,-24 -22,-59 -29,-78 -41,-109 -126,-302 -185,-415 -109,-210 -100,-197 -140,-190 -19,4 -39,10 -45,14 -5,5 -44,20 -85,34 -41,14 -102,36 -135,49 -90,36 -291,74 -493,93 -109,11 -107,8 -121,127 -6,56 -17,123 -23,148 -6,25 -14,63 -19,85 -23,114 -106,321 -172,430 -76,126 -248,332 -348,417 -157,134 -447,283 -639,331 -157,38 -244,47 -450,46 -113,0 -227,-4 -255,-10 -27,-5 -75,-13 -105,-19 -174,-31 -397,-126 -570,-242 -286,-193 -508,-452 -627,-732 -55,-129 -85,-218 -104,-311 -4,-22 -12,-60 -18,-85 -23,-108 -34,-308 -22,-418 20,-180 79,-433 120,-510 5,-9 26,-53 47,-97 78,-166 139,-251 283,-396 235,-234 442,-354 746,-432 129,-33 164,-39 280,-48 348,-28 715,52 984,215 149,91 281,197 392,315 57,61 110,111 118,111 22,0 311,-291 311,-313 0,-10 -14,-30 -32,-45 -46,-40 -305,-214 -416,-281 -107,-63 -476,-247 -557,-276 -164,-60 -215,-77 -240,-84 -17,-4 -39,-13 -50,-18 -46,-25 -259,-79 -460,-116 -487,-92 -983,-93 -1505,-1 -47,8 -107,21 -135,29 -27,8 -78,21 -112,29 -35,9 -91,23 -125,32 -69,18 -321,100 -353,114 -11,5 -65,28 -120,50 -117,49 -374,174 -460,224 -33,20 -67,39 -75,43 -8,3 -26,14 -40,24 -14,9 -71,47 -128,83 -119,77 -325,231 -427,319 -112,97 -396,384 -481,487 -81,96 -254,325 -254,334 0,3 -13,24 -28,48 -111,168 -143,224 -255,443 -82,162 -138,295 -207,495 -12,36 -28,81 -35,100 -15,41 -38,121 -59,205 -8,33 -22,87 -30,121 -9,33 -16,73 -16,88 0,15 -5,36 -10,46 -12,23 -32,168 -61,435 -30,283 -22,558 27,910 8,61 17,126 20,145 7,50 33,171 73,335 39,160 55,213 116,375 8,22 21,57 29,78 70,187 246,541 343,692 120,185 209,311 269,380 12,14 54,63 94,110 85,100 211,231 336,350 324,310 695,555 1139,754 33,15 69,32 79,38 11,6 31,14 45,18 14,5 51,18 81,30 140,54 403,133 545,164 415,90 894,125 1219,91 z m 1728,-6181 c 15,-8 40,-14 56,-14 16,0 46,-7 65,-15 20,-8 56,-15 79,-15 66,0 73,-8 58,-68 -16,-68 -6,-106 35,-138 93,-71 235,-12 235,97 0,16 6,32 13,34 6,3 55,-1 107,-10 52,-8 127,-19 165,-25 145,-23 269,-51 277,-63 4,-6 8,-34 8,-60 0,-66 39,-107 100,-107 35,0 48,6 82,40 23,22 44,40 46,40 3,0 24,-8 46,-19 23,-10 75,-32 116,-49 41,-16 98,-39 125,-50 l 50,-20 3,-53 c 2,-30 8,-59 14,-66 6,-8 8,-34 4,-67 -13,-103 41,-166 144,-166 29,0 74,-8 100,-17 45,-16 50,-16 93,1 25,9 55,26 68,36 12,11 28,20 34,20 18,0 166,-231 240,-374 79,-151 84,-161 119,-216 52,-80 118,-163 195,-243 l 76,-78 -3,-82 c -2,-46 -10,-89 -16,-97 -20,-24 -46,-98 -46,-131 0,-101 122,-199 249,-199 52,0 65,4 104,34 58,44 85,58 97,51 6,-3 31,-3 58,1 38,5 55,15 89,50 48,49 53,50 130,28 44,-13 89,-15 221,-12 160,4 212,12 312,44 25,8 89,18 142,21 111,7 131,-1 121,-47 -3,-16 0,-43 6,-60 9,-26 7,-40 -9,-75 -24,-52 -25,-67 -5,-104 43,-84 127,-105 197,-49 38,30 41,31 66,16 73,-43 152,-28 192,37 l 23,38 24,-29 c 13,-16 48,-59 78,-95 53,-66 145,-140 238,-194 86,-49 49,-64 -103,-39 -58,9 -133,19 -168,21 -53,5 -66,9 -79,30 -22,34 -84,63 -134,63 -53,0 -99,-28 -144,-87 -47,-62 -60,-110 -40,-156 l 15,-36 -38,-35 c -42,-39 -128,-106 -136,-106 -3,0 -4,28 -3,61 1,57 -1,63 -31,90 -71,64 -172,16 -172,-81 0,-17 7,-42 16,-56 9,-13 14,-28 10,-31 -6,-7 -24,-1 -151,49 -109,42 -165,56 -288,68 -182,18 -279,0 -464,-87 -51,-24 -97,-43 -103,-43 -5,0 -24,-7 -42,-14 -18,-8 -64,-27 -103,-41 -70,-27 -214,-85 -270,-109 -125,-55 -135,-55 -135,-8 0,50 -20,98 -57,141 l -36,43 18,47 c 38,96 30,134 -50,234 -80,100 -132,117 -241,75 -37,-14 -72,-38 -100,-66 l -42,-45 -51,17 c -62,20 -118,21 -164,1 -35,-15 -97,-69 -97,-86 0,-5 -9,-9 -19,-9 -21,0 -145,145 -162,189 -9,22 -5,29 35,63 54,47 71,90 61,164 -14,111 -104,180 -220,168 l -51,-6 -18,129 c -10,70 -16,142 -15,158 4,28 7,30 54,33 40,3 56,9 83,35 66,63 79,139 36,202 -20,30 -25,46 -20,74 18,112 18,118 1,152 -20,37 -37,54 -75,72 -14,7 -45,25 -68,41 -32,22 -59,31 -100,34 -62,4 -91,-5 -138,-43 l -30,-25 -50,68 c -43,60 -158,193 -252,292 -23,25 -31,41 -26,55 4,11 9,41 11,67 3,26 11,52 19,59 9,7 14,31 14,66 0,48 -4,58 -30,83 -63,59 -170,47 -228,-27 -33,-40 -44,-41 -91,-4 -31,24 -86,61 -143,96 -9,5 -51,28 -92,49 l -76,40 v 67 c 0,63 -2,69 -32,94 -28,24 -39,27 -82,22 -33,-3 -54,-11 -63,-23 -8,-11 -23,-30 -33,-44 -16,-22 -21,-24 -52,-14 -31,11 -71,22 -200,59 -32,9 -58,20 -58,24 0,5 12,29 26,55 23,42 27,45 47,34 12,-6 56,-12 98,-12 63,-1 81,3 99,19 32,29 60,89 60,128 0,18 3,37 7,40 10,10 103,-3 135,-19 z"
       id="path1"
       fill="#eeeeee" />
    <path
       d="m 7355,25733 c -24,-4 -128,-102 -500,-471 -258,-257 -483,-485 -499,-506 -54,-72 -45,-199 18,-261 22,-22 80,-55 95,-55 8,0 186,-78 306,-135 99,-47 167,-75 178,-75 7,0 17,-4 23,-9 5,-5 38,-21 74,-36 36,-15 88,-38 115,-50 87,-41 158,-72 215,-95 30,-12 70,-29 89,-37 76,-34 191,9 231,87 30,58 27,137 -6,186 -33,48 -45,57 -114,84 -55,23 -100,43 -220,98 -36,16 -110,49 -165,72 -55,23 -122,53 -150,65 -97,45 -164,75 -190,85 -14,5 -25,15 -25,22 0,7 167,180 371,383 222,222 376,383 385,404 29,69 12,151 -43,204 -44,42 -97,53 -188,40 z"
       id="path2"
       fill="#eeeeee" />
    <path
       d="m 3595,25373 c -29,-7 -75,-53 -91,-90 -14,-33 -17,-110 -6,-151 9,-31 63,-84 109,-108 21,-10 77,-43 125,-71 49,-29 132,-76 186,-105 53,-28 130,-71 170,-95 41,-24 75,-43 78,-43 2,0 59,-33 126,-73 68,-41 155,-91 193,-112 39,-21 93,-51 120,-66 70,-39 67,-55 -26,-126 -83,-64 -162,-126 -398,-313 -87,-69 -185,-146 -218,-171 -48,-38 -64,-57 -77,-95 -20,-59 -20,-79 0,-137 20,-61 70,-104 128,-112 86,-13 111,-2 266,121 80,64 154,123 165,132 11,10 48,39 82,65 34,26 68,53 75,60 15,14 127,104 371,297 183,144 207,174 207,255 0,85 -44,149 -135,196 -68,36 -135,74 -269,153 -70,42 -129,76 -131,76 -2,0 -38,20 -79,45 -42,25 -78,45 -80,45 -2,0 -60,33 -128,73 -67,40 -130,77 -138,80 -8,4 -28,15 -45,25 -16,10 -59,35 -95,54 -36,20 -89,50 -118,67 -29,17 -55,31 -58,31 -2,0 -23,12 -47,27 -85,56 -130,73 -187,72 -30,-1 -64,-3 -75,-6 z"
       id="path3"
       fill="#eeeeee" />
    <path
       d="m 7832,21038 c -18,-18 -14,-63 6,-81 50,-46 114,13 82,74 -12,22 -68,27 -88,7 z"
       id="path4"
       fill="#eeeeee" />
    <path
       d="m 8332,20810 c -52,-21 -48,-108 6,-124 45,-13 82,13 82,57 0,38 -7,50 -37,66 -25,13 -21,13 -51,1 z"
       id="path5"
       fill="#eeeeee" />
    <path
       d="m 8719,20481 c -22,-23 -29,-39 -29,-68 0,-46 24,-73 81,-93 46,-17 88,-2 112,39 25,43 21,76 -14,116 -27,30 -37,35 -76,35 -36,0 -50,-6 -74,-29 z"
       id="path6"
       fill="#eeeeee" />
    <path
       d="m 8163,20483 c -36,-7 -73,-59 -73,-102 0,-57 35,-85 107,-85 48,0 58,3 79,27 13,16 24,40 24,55 0,31 -44,102 -63,102 -7,0 -21,2 -32,4 -11,2 -30,2 -42,-1 z"
       id="path7"
       cfill="#eeeeee" />
    <path
       d="m 9243,20280 c -55,-22 -81,-122 -43,-170 16,-21 27,-25 74,-25 74,0 106,28 106,95 0,48 -17,73 -67,99 -25,13 -40,13 -70,1 z"
       id="path8"
       fill="#eeeeee" />
    <path
       d="m 8826,20164 c -42,-42 10,-122 58,-90 36,23 43,43 26,74 -19,32 -60,41 -84,16 z"
       id="path9"
       fill="#eeeeee" />
    <path
       d="m 9523,19919 c -45,-28 -60,-77 -38,-123 19,-39 54,-52 105,-41 41,9 62,43 58,96 -3,36 -8,47 -37,66 -41,28 -48,28 -88,2 z"
       id="path10"
       fill="#eeeeee" />
    <path
       d="m 8985,19729 c -93,-27 -127,-156 -59,-220 21,-20 36,-24 84,-24 48,0 63,4 85,25 81,75 70,178 -21,216 -37,16 -46,16 -89,3 z"
       id="path11"
       fill="#eeeeee" />
    <path
       d="m 9449,19421 c -17,-18 -29,-40 -29,-56 0,-30 49,-85 75,-85 74,0 101,121 35,155 -40,21 -47,19 -81,-14 z"
       id="path12"
       fill="#eeeeee" />
    <path
       d="m 8977,19207 c -10,-6 -20,-28 -23,-48 -11,-64 46,-99 101,-63 31,20 35,82 7,107 -22,20 -61,22 -85,4 z"
       id="path13"
       fill="#eeeeee" />
    <path
       d="m 10738,19133 c -36,-38 -68,-124 -68,-181 0,-41 5,-53 32,-81 34,-35 79,-60 145,-80 36,-12 45,-11 79,5 22,11 54,41 74,69 32,45 35,55 35,121 0,58 -4,78 -21,101 -29,39 -115,72 -190,73 -53,0 -63,-3 -86,-27 z"
       id="path14"
       fill="#eeeeee" />
    <path
       d="m 9946,19019 c -20,-16 -26,-29 -26,-58 0,-48 26,-73 76,-73 72,0 100,77 47,127 -34,30 -62,32 -97,4 z"
       id="path15"
       fill="#eeeeee" />
    <path
       d="m 10184,18778 c -41,-44 -48,-67 -33,-110 16,-49 66,-83 109,-73 73,16 108,125 56,174 -15,14 -42,25 -68,28 -36,4 -46,1 -64,-19 z"
       id="path16"
       fill="#eeeeee" />
  </g>
</svg>
