<?xml version="1.0" encoding="UTF-8" standalone="no"?>
<!-- Created with Inkscape (http://www.inkscape.org/) -->

<svg
   width="236.85228mm"
   height="107.70887mm"
   viewBox="0 0 236.85228 107.70887"
   version="1.1"
   id="svg1"
   inkscape:version="1.4.2 (ebf0e940d0, 2025-05-08)"
   sodipodi:docname="quibbles-logo-dark.svg"
   xmlns:inkscape="http://www.inkscape.org/namespaces/inkscape"
   xmlns:sodipodi="http://sodipodi.sourceforge.net/DTD/sodipodi-0.dtd"
   xmlns="http://www.w3.org/2000/svg"
   xmlns:svg="http://www.w3.org/2000/svg">
  <sodipodi:namedview
     id="namedview1"
     pagecolor="#ffffff"
     bordercolor="#000000"
     borderopacity="0.25"
     inkscape:showpageshadow="2"
     inkscape:pageopacity="0.0"
     inkscape:pagecheckerboard="0"
     inkscape:deskcolor="#d1d1d1"
     inkscape:document-units="mm"
     inkscape:zoom="0.87214506"
     inkscape:cx="817.52455"
     inkscape:cy="574.44572"
     inkscape:window-width="2520"
     inkscape:window-height="1363"
     inkscape:window-x="26"
     inkscape:window-y="23"
     inkscape:window-maximized="0"
     inkscape:current-layer="layer1"
     showgrid="false" />
  <defs
     id="defs1" />
  <g
     inkscape:label="Layer 1"
     inkscape:groupmode="layer"
     id="layer1"
     transform="translate(111.38953,27.781486)">
    <path
       id="path1"
       style="stroke-width:0.0107702;fill:#ffffff"
       class="ColorScheme-Text"
       d="M -66.442919 -27.731877 C -67.239915 -27.678027 -68.231014 -27.591859 -68.651053 -27.527238 C -69.060321 -27.462618 -69.986089 -27.333232 -70.696923 -27.2363 C -71.407756 -27.13937 -72.215753 -26.988632 -72.49578 -26.90247 C -72.775804 -26.81631 -73.109646 -26.751575 -73.238887 -26.751575 C -73.36813 -26.751575 -73.723319 -26.686844 -74.024886 -26.60068 C -74.326452 -26.51452 -74.886694 -26.3637 -75.274422 -26.255998 C -77.094588 -25.782108 -78.010234 -25.502271 -79.582686 -24.920679 C -80.088886 -24.737585 -80.62718 -24.543547 -80.777962 -24.489697 C -80.928746 -24.446617 -81.144216 -24.360615 -81.262687 -24.306763 C -81.370389 -24.242143 -81.661361 -24.113191 -81.898307 -24.005489 C -82.135252 -23.908559 -82.469171 -23.757387 -82.652266 -23.681995 C -83.772368 -23.186566 -86.734175 -21.657139 -87.412699 -21.226331 C -87.671183 -21.064777 -87.897152 -20.935909 -87.929463 -20.935909 C -87.961773 -20.935909 -88.123443 -20.849739 -88.284997 -20.73127 C -88.44655 -20.623568 -89.06051 -20.214144 -89.652872 -19.826416 C -92.517748 -17.952398 -94.596054 -16.23974 -97.223986 -13.611808 C -100.74585 -10.089947 -103.01881 -7.0852243 -105.37749 -2.8202189 C -106.16371 -1.3985502 -107.82201 2.1555079 -108.12358 3.0817464 C -108.17738 3.2325295 -108.31731 3.6206028 -108.44656 3.9437093 C -109.07123 5.5700118 -109.6209 7.3898643 -110.06248 9.2746501 C -110.2348 10.039335 -110.43918 10.890034 -110.5038 11.15929 C -110.5684 11.428546 -110.66544 11.956504 -110.71929 12.34423 C -110.76239 12.731958 -110.88066 13.550452 -110.96682 14.175126 C -111.31147 16.533804 -111.37618 17.557263 -111.38695 21.014502 C -111.39775 24.676375 -111.3978 24.643794 -110.85933 28.391829 C -110.77313 29.016502 -110.62252 29.834999 -110.53635 30.222725 C -110.46095 30.610456 -110.28836 31.386083 -110.15911 31.946134 C -110.04064 32.506183 -109.90084 33.109212 -109.84699 33.292306 C -109.49157 34.563193 -109.37298 34.940165 -109.28682 35.198649 C -109.23302 35.349433 -109.14688 35.63997 -109.09303 35.844604 C -109.00683 36.189253 -108.4363 37.815717 -108.24244 38.246525 C -108.18854 38.364995 -108.06953 38.677485 -107.96183 38.946741 C -107.19715 40.939231 -105.56054 44.159255 -104.21426 46.324068 C -103.9127 46.797958 -103.42803 47.541219 -103.12647 47.97203 C -102.8249 48.413606 -102.50156 48.865979 -102.4154 48.995223 C -100.21827 52.237059 -96.308735 56.265295 -92.356066 59.356348 C -91.139032 60.314899 -89.545084 61.456478 -89.437382 61.456478 C -89.415842 61.456478 -89.082003 61.671947 -88.694274 61.941203 C -88.295777 62.210459 -87.961773 62.425928 -87.929463 62.425928 C -87.897153 62.425928 -87.671183 62.554797 -87.412699 62.716349 C -86.281826 63.437952 -83.502983 64.838309 -81.682816 65.602995 C -80.735037 66.001494 -79.808588 66.3999 -79.614725 66.475293 C -79.237767 66.647616 -76.63164 67.477115 -75.705403 67.724829 C -72.398945 68.629527 -71.526724 68.812352 -69.674247 69.049296 C -68.87725 69.146226 -67.724564 69.296961 -67.121431 69.383126 C -65.559749 69.598528 -59.173258 69.598436 -57.428483 69.372274 C -55.500614 69.124555 -53.971123 68.887792 -53.195666 68.715466 C -51.655527 68.381591 -49.716578 67.897071 -49.21038 67.713977 C -49.059597 67.670897 -48.650605 67.54159 -48.29519 67.433891 C -44.741018 66.367639 -40.680486 64.536757 -37.460192 62.544267 C -35.769269 61.499554 -35.134213 61.07955 -34.111043 60.304093 C -32.678605 59.227073 -32.678284 59.226858 -32.096696 60.41158 C -31.493562 61.628616 -31.106056 63.147323 -30.90142 65.11827 C -30.739868 66.701492 -30.513506 67.606199 -29.856522 69.200191 C -29.048757 71.149596 -26.765394 74.337887 -25.289876 75.565694 C -24.255932 76.427309 -22.640736 77.418016 -20.77749 78.333484 C -19.7974 78.818143 -18.806301 79.281367 -18.569356 79.367529 C -17.083065 79.906038 -16.964415 79.927185 -15.553519 79.927185 L -14.153605 79.927185 L -12.807434 79.356677 C -12.064288 79.044341 -11.364247 78.742435 -11.245772 78.699353 C -11.1273 78.645503 -10.814809 78.527486 -10.545556 78.419784 C -10.276297 78.322854 -9.8991629 78.171596 -9.7052974 78.085437 C -9.5114346 77.999277 -9.2963987 77.935059 -9.2102372 77.935059 C -9.0379114 77.935059 -7.2715905 77.170074 -6.4207434 76.739266 C -5.3760309 76.200757 -4.4602183 75.964119 -3.3832027 75.964119 C -2.3492587 75.964119 -1.7244546 76.136492 0.17110232 76.922717 C 1.883565 77.622784 3.821913 77.633194 5.2328089 76.943905 C 6.1159695 76.523868 7.2037475 75.694619 8.2915369 74.639136 C 8.8731281 74.057544 9.3039637 73.734472 9.5193689 73.69139 C 9.9178685 73.60523 10.994919 73.70224 12.039629 73.906881 C 13.245896 74.143829 14.936833 74.090025 16.326189 73.77769 C 16.983173 73.626906 17.704646 73.476009 17.941594 73.422156 C 18.178536 73.379076 18.566612 73.282139 18.803557 73.217517 C 19.040502 73.152897 19.352473 73.077231 19.503256 73.044918 C 19.890985 72.958758 20.580469 72.356062 20.752792 71.946794 C 21.075899 71.182108 20.860267 70.309781 20.246363 69.846663 C 20.041731 69.695883 19.568006 69.490744 19.180278 69.372274 C 18.157107 69.081476 15.992493 68.004978 14.786231 67.197213 C 13.612277 66.400217 12.750738 65.549254 12.007589 64.461462 C 11.490623 63.686002 10.53158 62.727401 9.5622604 62.005798 C 8.2052125 60.993396 5.6854079 60.411882 3.0897872 60.519584 C 2.3143279 60.551894 1.4849842 60.627128 1.2480392 60.702519 C 1.0110943 60.767139 0.58015609 60.89636 0.2785893 60.971753 C -1.5092638 61.488723 -3.4804447 61.467285 -4.783634 60.918009 C -5.6560208 60.55182 -7.2177177 59.744155 -7.7777665 59.3672 C -8.6824642 58.753298 -10.147095 57.342384 -10.890238 56.373067 C -11.234887 55.909945 -11.84868 54.91885 -12.236409 54.164933 C -12.613366 53.421789 -13.054995 52.624807 -13.195007 52.398633 C -13.335019 52.172456 -13.453389 51.957069 -13.453389 51.92476 C -13.453389 51.89245 -13.539559 51.730778 -13.658028 51.569226 C -13.765729 51.407671 -14.16414 50.815663 -14.530326 50.255611 C -16.167398 47.767692 -17.837124 46.249064 -19.948083 45.355135 C -20.465056 45.128961 -20.917261 44.902557 -20.949572 44.848706 C -20.981882 44.794856 -20.47536 43.674888 -19.818375 42.350151 C -19.161394 41.036183 -18.623099 39.87308 -18.623099 39.776147 C -18.623099 39.679217 -18.580238 39.582032 -18.515612 39.538953 C -18.461762 39.506643 -18.364822 39.32354 -18.310974 39.129675 C -18.257124 38.935809 -18.106385 38.515889 -17.977144 38.192782 C -17.384784 36.663414 -17.104398 35.834292 -16.705904 34.477246 C -16.296633 33.098656 -16.146317 32.463189 -15.543184 29.57677 C -15.392403 28.822856 -15.165943 27.131859 -14.961307 25.214762 C -14.767444 23.405364 -14.702951 19.043397 -14.842968 17.729431 C -14.918358 17.104758 -15.014944 16.081373 -15.068794 15.456702 C -15.165734 14.293517 -15.284263 13.518397 -15.553519 12.236743 C -15.639679 11.849014 -15.790416 11.073385 -15.887349 10.513334 C -16.059672 9.5224747 -16.404663 8.1436467 -16.749312 7.0127726 C -16.835472 6.7112058 -16.953841 6.3236496 -17.007694 6.1513265 C -17.061544 5.9682335 -17.277014 5.343774 -17.492419 4.7514119 C -17.707824 4.15905 -17.92321 3.523304 -17.966292 3.3509806 C -18.106304 2.8340102 -19.00008 0.79832694 -19.646293 -0.47255859 C -20.647926 -2.4650483 -21.326467 -3.7250614 -21.757275 -4.4035848 C -22.026528 -4.8236232 -22.425187 -5.4694334 -22.662129 -5.8463908 C -23.319114 -6.8911018 -25.655929 -9.9824364 -26.700642 -11.1887 C -28.186931 -12.890416 -30.222645 -14.915007 -31.752014 -16.196663 C -32.064352 -16.465918 -32.430475 -16.767555 -32.559716 -16.886027 C -33.658279 -17.844577 -37.137276 -20.257037 -38.709729 -21.161735 C -41.962334 -23.014212 -44.913058 -24.360801 -47.917952 -25.35166 C -49.770426 -25.965563 -51.967581 -26.590022 -52.818428 -26.751575 C -53.055373 -26.794655 -53.486312 -26.88074 -53.787878 -26.945361 C -54.563332 -27.106915 -56.189445 -27.365413 -57.503413 -27.559277 C -58.84969 -27.742371 -64.310417 -27.850348 -66.442919 -27.731877 z M -62.621964 -23.819971 C -61.576243 -23.818971 -60.597479 -23.773539 -59.722399 -23.681995 C -57.719139 -23.466591 -55.888179 -23.219133 -55.026562 -23.036039 C -52.947908 -22.605231 -52.538623 -22.508147 -51.827791 -22.335824 C -51.030794 -22.13119 -49.576801 -21.678956 -48.833658 -21.39893 C -48.596713 -21.31277 -48.23059 -21.17253 -48.025956 -21.097139 C -46.25964 -20.440156 -45.559291 -20.138549 -43.771435 -19.255391 C -42.640561 -18.69534 -41.64998 -18.200184 -41.563818 -18.135563 C -41.477658 -18.081713 -40.896063 -17.73694 -40.27139 -17.370752 C -39.345152 -16.821471 -37.07261 -15.324412 -36.663342 -14.990535 C -36.598722 -14.936685 -36.307666 -14.721215 -36.01687 -14.505811 C -34.218243 -13.181074 -31.008657 -10.122574 -29.479284 -8.2808675 C -28.628439 -7.257697 -26.991648 -5.0927923 -26.388517 -4.1880941 C -24.460649 -1.3232168 -22.231126 3.25401 -21.207954 6.4743042 C -21.014093 7.0666666 -20.79862 7.7238449 -20.72323 7.928479 C -20.64784 8.133113 -20.507953 8.6176876 -20.400252 9.0054159 C -20.303322 9.3931443 -20.174019 9.8777182 -20.120166 10.082353 C -19.883223 10.98705 -19.344685 13.862685 -19.096972 15.521297 C -18.946188 16.555239 -18.903186 17.55709 -18.903186 20.583521 C -18.903186 24.956231 -18.978405 25.774861 -19.764632 29.846004 C -19.850792 30.319894 -20.001964 30.955205 -20.088126 31.256771 C -20.174286 31.558336 -20.238505 31.892176 -20.238505 31.999878 C -20.238505 32.096808 -20.314005 32.409217 -20.3894 32.689242 C -20.47556 32.958495 -20.637152 33.475356 -20.734082 33.830774 C -20.906408 34.455444 -21.025137 34.800109 -21.380554 35.737118 C -21.477484 35.995603 -21.617289 36.372742 -21.692679 36.577376 C -22.134261 37.751329 -23.049881 39.829837 -23.685323 41.046871 C -24.859276 43.308619 -24.761917 43.168651 -25.192724 43.093258 C -25.397358 43.050178 -25.61283 42.985444 -25.677449 42.942362 C -25.731299 42.888512 -26.151576 42.726761 -26.593155 42.575977 C -27.034736 42.425194 -27.6914 42.188373 -28.046814 42.04836 C -29.016134 41.660632 -31.1815 41.251507 -33.357084 41.046871 C -34.531035 40.928401 -34.509063 40.960648 -34.659847 39.678996 C -34.724467 39.075865 -34.843271 38.354548 -34.907893 38.085295 C -34.972513 37.816042 -35.058681 37.40653 -35.112532 37.169588 C -35.360245 35.941781 -36.253782 33.712297 -36.964615 32.538346 C -37.783151 31.181296 -39.635686 28.962617 -40.712707 28.047148 C -42.403633 26.603939 -45.527091 24.999474 -47.594974 24.482507 C -49.285897 24.073237 -50.223043 23.976161 -52.441707 23.98693 C -53.658743 23.98693 -54.886745 24.029787 -55.188309 24.094417 C -55.479106 24.148267 -55.995883 24.234432 -56.31899 24.299056 C -58.193008 24.632931 -60.594901 25.656271 -62.45815 26.905615 C -65.538431 28.984269 -67.929052 31.773712 -69.210709 34.789372 C -69.803071 36.178728 -70.126421 37.137405 -70.331054 38.139038 C -70.374134 38.375981 -70.460218 38.784969 -70.524841 39.054228 C -70.772556 40.217408 -70.891279 42.371556 -70.762036 43.556278 C -70.546632 45.49492 -69.910672 48.219659 -69.469091 49.048966 C -69.415241 49.145896 -69.189354 49.619974 -68.963179 50.093864 C -68.123102 51.881722 -67.466215 52.797038 -65.915303 54.35872 C -63.384302 56.87895 -61.154797 58.171587 -57.880651 59.011666 C -56.491294 59.367083 -56.114159 59.431498 -54.864815 59.52843 C -51.116778 59.829997 -47.164202 58.968354 -44.267012 57.212809 C -42.662251 56.232719 -41.240541 55.091137 -40.045048 53.820251 C -39.431146 53.163266 -38.860486 52.624976 -38.774324 52.624976 C -38.537379 52.624976 -35.424658 55.758884 -35.424658 55.995829 C -35.424658 56.103531 -35.575475 56.318999 -35.76934 56.480554 C -36.26477 56.911361 -39.054192 58.785637 -40.249686 59.507243 C -41.4021 60.185767 -45.376413 62.167336 -46.248803 62.479671 C -48.015116 63.125887 -48.564402 63.308618 -48.833658 63.384009 C -49.01675 63.427089 -49.253654 63.524458 -49.372127 63.578312 C -49.867559 63.847565 -52.16153 64.428835 -54.326346 64.827332 C -59.57144 65.818191 -64.91364 65.829056 -70.535693 64.838184 C -71.041893 64.752024 -71.688301 64.61222 -71.989868 64.526058 C -72.280664 64.439898 -72.829808 64.299578 -73.195996 64.213416 C -73.572954 64.116486 -74.175978 63.965669 -74.542167 63.868734 C -75.28531 63.674873 -77.999354 62.791686 -78.344002 62.640902 C -78.462473 62.587052 -79.044067 62.339897 -79.636429 62.10295 C -80.896545 61.575212 -83.664411 60.228687 -84.590649 59.690177 C -84.946065 59.474772 -85.31219 59.270234 -85.398352 59.227157 C -85.484512 59.194847 -85.678549 59.075962 -85.829333 58.968258 C -85.980116 58.871328 -86.594156 58.462498 -87.20806 58.074772 C -88.489715 57.245465 -90.708184 55.586588 -91.806746 54.638806 C -93.01301 53.594096 -96.07184 50.50298 -96.987308 49.393648 C -97.859695 48.359704 -99.723059 45.893387 -99.723059 45.796452 C -99.723059 45.764142 -99.862779 45.538175 -100.02433 45.279688 C -101.21982 43.470295 -101.56467 42.867082 -102.77093 40.508403 C -103.65409 38.76363 -104.25711 37.330989 -105.00026 35.176945 C -105.1295 34.789219 -105.3021 34.304642 -105.37749 34.100008 C -105.53904 33.658429 -105.78643 32.797088 -106.0126 31.892391 C -106.0988 31.536973 -106.24941 30.955299 -106.33557 30.589111 C -106.43247 30.233693 -106.50817 29.802921 -106.50817 29.641366 C -106.50817 29.479814 -106.56182 29.253496 -106.61566 29.145789 C -106.7449 28.898076 -106.96065 27.336451 -107.27299 24.460803 C -107.5961 21.412833 -107.50979 18.450967 -106.98205 14.659851 C -106.89585 14.002869 -106.79887 13.302826 -106.76656 13.098189 C -106.69116 12.55968 -106.41137 11.256456 -105.98056 9.4901408 C -105.56052 7.766907 -105.388 7.1958851 -104.73102 5.4511108 C -104.64482 5.2141658 -104.50506 4.8375433 -104.4189 4.6113688 C -103.66499 2.5973385 -101.76926 -1.2156205 -100.72455 -2.841923 C -99.432119 -4.8344129 -98.473263 -6.1915514 -97.82705 -6.9346964 C -97.697808 -7.0854795 -97.245517 -7.6129202 -96.814709 -8.1191203 C -95.89924 -9.1961419 -94.542602 -10.60726 -93.196325 -11.888916 C -89.706775 -15.227683 -85.710833 -17.866078 -80.928857 -20.009351 C -80.57344 -20.170904 -80.185965 -20.354007 -80.078263 -20.418628 C -79.959792 -20.483248 -79.744322 -20.569335 -79.593538 -20.612415 C -79.442756 -20.666265 -79.044347 -20.806667 -78.72124 -20.935909 C -77.21341 -21.517501 -74.380684 -22.368332 -72.851314 -22.702209 C -69.499084 -23.429198 -65.759126 -23.823 -62.621964 -23.819971 z M -38.477185 -4.2216838 C -38.675926 -4.2201738 -38.895173 -4.201393 -39.140193 -4.16639 C -39.398681 -4.123309 -40.518875 -3.0680409 -44.525394 0.90616862 C -47.304112 3.6741142 -49.72742 6.1297914 -49.899743 6.3559652 C -50.481334 7.1314218 -50.384478 8.4994103 -49.705957 9.1671631 C -49.469012 9.404108 -48.844315 9.759375 -48.682763 9.759375 C -48.596603 9.759375 -46.679786 10.599648 -45.387357 11.21355 C -44.321107 11.719751 -43.588634 12.021252 -43.470162 12.021252 C -43.394772 12.021252 -43.286734 12.064037 -43.222115 12.117887 C -43.168265 12.171737 -42.81299 12.344422 -42.425264 12.505977 C -42.037536 12.667529 -41.477378 12.915202 -41.18658 13.044446 C -40.249571 13.486022 -39.484861 13.819926 -38.870959 14.067639 C -38.547853 14.196881 -38.117512 14.3799 -37.912878 14.466064 C -37.094342 14.832248 -35.855466 14.369244 -35.424658 13.529171 C -35.101551 12.904498 -35.133835 12.053416 -35.489253 11.525675 C -35.844671 11.008703 -35.973937 10.911617 -36.717085 10.620821 C -37.309445 10.373105 -37.794024 10.15795 -39.08645 9.5655884 C -39.474176 9.3932653 -40.271237 9.0376386 -40.863602 8.7899251 C -41.455964 8.5422089 -42.177441 8.2194673 -42.479008 8.0902262 C -43.52372 7.6055652 -44.24537 7.2822212 -44.525394 7.1745199 C -44.676177 7.1206689 -44.794628 7.012718 -44.794628 6.937325 C -44.794628 6.861935 -42.996131 4.9988658 -40.799007 2.8125122 C -38.408018 0.42152424 -36.74942 -1.3124691 -36.65249 -1.5386434 C -36.340155 -2.2817884 -36.523151 -3.1645872 -37.115511 -3.7354085 C -37.470931 -4.0746702 -37.880951 -4.2262272 -38.477185 -4.2216838 z M -78.828727 -0.3537028 C -79.151834 -0.3429316 -79.517957 -0.32141796 -79.636429 -0.28910726 C -79.948766 -0.21371586 -80.444409 0.28184467 -80.616731 0.68034261 C -80.767515 1.0357595 -80.799794 1.8650211 -80.681327 2.3065999 C -80.584397 2.6404768 -80.002669 3.2108345 -79.507238 3.4693197 C -79.281064 3.5770218 -78.678038 3.9325649 -78.161067 4.2341309 C -77.633328 4.546467 -76.739163 5.0529919 -76.157572 5.365328 C -75.586751 5.6668943 -74.757484 6.1300367 -74.326676 6.3885213 C -73.885096 6.647006 -73.519244 6.8515422 -73.486934 6.8515422 C -73.465394 6.8515422 -72.850999 7.2067329 -72.129394 7.6375407 C -71.39702 8.0791196 -70.460235 8.6180116 -70.050968 8.8441854 C -69.630928 9.0703592 -69.049336 9.3931844 -68.75854 9.5547363 C -68.004625 9.9747756 -68.036997 10.147073 -69.038627 10.911759 C -69.932556 11.601054 -70.783415 12.269101 -73.325187 14.28313 C -74.262195 15.026276 -75.31743 15.855622 -75.672847 16.124878 C -76.189817 16.534146 -76.36224 16.738284 -76.502254 17.147555 C -76.717658 17.782996 -76.717658 17.998757 -76.502254 18.623433 C -76.28685 19.280414 -75.748201 19.743397 -75.123527 19.829561 C -74.19729 19.969574 -73.928485 19.851032 -72.259102 18.526282 C -71.397485 17.836992 -70.599904 17.201598 -70.481433 17.104663 C -70.362961 16.996962 -69.964988 16.684472 -69.598799 16.404447 C -69.232613 16.124417 -68.865972 15.833882 -68.79058 15.758492 C -68.629027 15.607709 -67.422889 14.638375 -64.794958 12.559721 C -62.824008 11.00881 -62.565637 10.685506 -62.565637 9.8131185 C -62.565637 8.8976496 -63.039723 8.208337 -64.019812 7.7021362 C -64.752186 7.3144079 -65.473583 6.9055386 -66.916792 6.0546916 C -67.670707 5.6023424 -68.306018 5.2361369 -68.327559 5.2361369 C -68.349099 5.2361369 -68.73709 5.0206673 -69.17867 4.7514119 C -69.631019 4.4821566 -70.018576 4.266687 -70.040116 4.266687 C -70.061656 4.266687 -70.686469 3.9109803 -71.418843 3.4801717 C -72.140448 3.0493628 -72.818895 2.6510363 -72.905057 2.6187256 C -72.991217 2.5756446 -73.206688 2.4571937 -73.389782 2.3494914 C -73.562105 2.2417893 -74.025248 1.9727658 -74.412976 1.7681315 C -74.800702 1.5527274 -75.371364 1.2293053 -75.683699 1.0462118 C -75.996036 0.86311776 -76.276156 0.712382 -76.308467 0.712382 C -76.330007 0.712382 -76.555895 0.58299694 -76.814379 0.42144369 C -77.729848 -0.18168829 -78.214824 -0.36447293 -78.828727 -0.3537028 z M 26.250131 22.026843 C 25.132531 22.026843 24.184276 22.43309 23.405343 23.24589 C 22.62641 24.024824 22.236939 24.973078 22.236939 26.090678 C 22.236939 27.208278 22.62641 28.156532 23.405343 28.935465 C 24.184276 29.714399 25.132531 30.10387 26.250131 30.10387 C 27.367731 30.10387 28.315985 29.714399 29.094918 28.935465 C 29.907718 28.156532 30.313965 27.208278 30.313965 26.090678 C 30.313965 24.973078 29.907718 24.024824 29.094918 23.24589 C 28.315985 22.43309 27.367731 22.026843 26.250131 22.026843 z M 44.284172 22.687268 L 36.765768 23.703227 L 31.330441 49.15387 C 30.957907 50.47467 30.348278 51.558684 29.501612 52.405351 C 28.654945 53.218151 27.740243 53.624398 26.75811 53.624398 C 26.013043 53.624398 25.471036 53.489154 25.132369 53.218221 C 24.827569 52.913421 24.67555 52.422259 24.67555 51.744926 C 24.67555 51.169193 24.743171 50.627185 24.878638 50.119185 L 28.536296 32.847371 L 21.22098 32.847371 L 17.766411 49.15387 L 17.766411 49.154386 C 17.360021 50.508857 16.801154 51.592635 16.090027 52.405351 C 15.412694 53.218151 14.6002 53.624398 13.651933 53.624398 C 12.906867 53.624398 12.364859 53.489154 12.026193 53.218221 C 11.721393 52.913421 11.568856 52.422259 11.568856 51.744926 C 11.568856 51.169193 11.636995 50.627185 11.772461 50.119185 L 15.429602 32.847371 L 8.1148035 32.847371 L 4.660234 49.15387 C 4.253834 50.542403 3.7118267 51.643194 3.0344934 52.455994 C 2.3571601 53.234927 1.544666 53.624398 0.59639936 53.624398 C -0.41960062 53.624398 -0.92753863 52.930371 -0.92753863 51.541838 C -0.92753863 51.101571 -0.87720992 50.627185 -0.77560992 50.119185 L 2.882048 32.847371 L -4.432751 32.847371 L -7.8873205 49.15387 C -8.1582539 50.508536 -8.2934973 51.609327 -8.2934973 52.455994 C -8.2934973 54.487994 -7.8028523 56.011808 -6.820719 57.027808 C -5.804719 58.043808 -4.4837701 58.551746 -2.8581701 58.551746 C -1.5373701 58.551746 -0.25049053 58.21312 1.0025761 57.535787 C 2.2895095 56.858454 3.5087674 55.588867 4.660234 53.7262 C 4.8295673 55.317934 5.3375053 56.519899 6.184172 57.332699 C 7.0647053 58.145499 8.2331177 58.551746 9.6893844 58.551746 C 11.552051 58.551746 13.397714 57.908564 15.226514 56.621631 C 16.044076 56.041905 16.803256 55.237221 17.503378 54.207308 C 17.714022 55.388387 18.157352 56.328314 18.833529 57.027808 C 19.849529 58.043808 21.169961 58.551746 22.795561 58.551746 C 24.725961 58.551746 26.673315 57.908564 28.637582 56.621631 C 29.564112 55.998619 30.41177 55.115633 31.180062 53.972697 C 31.451731 55.14243 31.992638 56.109813 32.803219 56.875362 C 34.022419 57.992962 35.783684 58.551746 38.086617 58.551746 C 41.405551 58.551746 44.097777 57.603491 46.163644 55.706958 C 48.263377 53.810425 49.753639 51.541738 50.634172 48.900138 C 51.548572 46.224672 52.005664 43.718534 52.005664 41.381734 C 52.005664 35.590534 50.007465 32.694926 46.011198 32.694926 C 45.401598 32.694926 44.791969 32.796617 44.182369 32.999817 C 43.572769 33.16915 42.793828 33.541328 41.845561 34.117061 L 44.284172 22.687268 z M 66.839384 22.687268 L 59.32098 23.703227 L 53.885653 49.15387 C 53.648586 50.06827 53.529602 51.033817 53.529602 52.049817 C 53.529602 54.115684 54.139231 55.723895 55.358431 56.875362 C 56.577631 57.992962 58.338897 58.551746 60.64183 58.551746 C 63.960763 58.551746 66.65299 57.603491 68.718856 55.706958 C 70.81859 53.810425 72.308851 51.541738 73.189384 48.900138 C 74.103784 46.224672 74.560877 43.718534 74.560877 41.381734 C 74.560877 35.590534 72.562677 32.694926 68.566411 32.694926 C 67.956811 32.694926 67.347182 32.796617 66.737582 32.999817 C 66.127982 33.16915 65.34904 33.541328 64.400774 34.117061 L 66.839384 22.687268 z M 89.394597 22.687268 L 81.876193 23.703227 L 76.440866 49.15387 C 76.169932 50.508536 76.034172 51.609327 76.034172 52.455994 C 76.034172 54.487994 76.525334 56.011808 77.507467 57.027808 C 78.523467 58.043808 79.844416 58.551746 81.470016 58.551746 C 83.400416 58.551746 85.34777 57.908564 87.312037 56.621631 C 88.23052 56.00403 89.070864 55.130685 89.833846 54.002153 C 90.180673 55.068243 90.711597 55.941587 91.426514 56.621631 C 92.815047 57.908564 94.762401 58.551746 97.268535 58.551746 C 101.34576 58.551746 104.93931 56.86376 108.04927 53.487455 C 108.18331 54.068306 108.40004 54.638724 108.69884 55.198979 C 109.24071 56.181112 110.0705 56.994123 111.1881 57.63759 C 112.3057 58.24719 113.67698 58.551746 115.30258 58.551746 C 116.89431 58.551746 118.45219 58.263966 119.97619 57.688232 C 121.53406 57.112499 122.83823 56.164245 123.8881 54.843445 C 124.93797 53.522645 125.46268 51.829518 125.46268 49.763652 C 125.46268 48.849252 125.37776 47.375766 125.20843 45.343766 C 124.80203 40.297633 124.51425 35.607207 124.34492 31.272274 L 116.82651 32.288232 C 115.94598 35.099166 115.01502 37.72377 114.03289 40.16217 C 113.05075 42.566704 111.89912 44.954374 110.57832 47.325041 C 109.83325 47.697574 109.20684 48.307203 108.69884 49.15387 C 108.38994 49.61722 108.16916 50.13039 108.03635 50.692794 C 107.03457 51.668255 106.08697 52.441965 105.19363 53.014616 C 103.9067 53.861283 102.34882 54.284823 100.52002 54.284823 C 99.233081 54.284823 98.301605 53.997043 97.725871 53.421309 C 97.150138 52.811709 96.862358 51.676849 96.862358 50.017383 C 96.862358 49.678716 96.89591 49.001465 96.963644 47.985465 C 98.995646 47.849999 100.90945 47.308508 102.70438 46.360242 C 104.49931 45.378108 105.93873 44.090712 107.02246 42.498979 C 108.10619 40.907245 108.64769 39.163273 108.64769 37.26674 C 108.64769 34.01554 106.78525 32.390035 103.05991 32.390035 C 99.876444 32.390035 97.251841 33.422687 95.185975 35.488554 C 93.120108 37.520554 91.629846 39.942293 90.715446 42.753227 C 89.801046 45.56416 89.343954 48.137919 89.343954 50.474719 C 89.343954 50.588281 89.345249 50.700523 89.347571 50.81165 C 89.027184 51.413017 88.636427 51.944473 88.17555 52.405351 C 87.328883 53.218151 86.414181 53.624398 85.432048 53.624398 C 84.686981 53.624398 84.145491 53.489154 83.806824 53.218221 C 83.502024 52.913421 83.349488 52.422259 83.349488 51.744926 C 83.349488 51.169193 83.417109 50.627185 83.552576 50.119185 L 89.394597 22.687268 z M 103.46609 35.082377 C 104.31276 35.082377 104.7363 35.776404 104.7363 37.164937 C 104.7363 38.553471 104.38089 39.87442 103.66969 41.127486 C 102.99236 42.380553 102.07766 43.413722 100.92619 44.226522 C 99.808591 45.039322 98.623404 45.479638 97.370337 45.547371 C 97.878337 42.838038 98.708122 40.416299 99.859591 38.282699 C 101.04492 36.149099 102.24689 35.082377 103.46609 35.082377 z M 44.182369 36.301424 C 45.029036 36.301424 45.68951 36.77581 46.163644 37.724076 C 46.637777 38.672343 46.875228 39.823979 46.875228 41.178646 C 46.875228 42.973579 46.604225 44.852795 46.062358 46.817061 C 45.520491 48.747461 44.792395 50.372967 43.877995 51.693766 C 42.963595 52.9807 41.981272 53.624398 40.931405 53.624398 C 39.136472 53.624398 38.239063 52.845456 38.239063 51.28759 C 38.239063 50.915056 38.289908 50.525585 38.391508 50.119185 L 41.185653 37.216097 C 41.42272 36.911297 41.845743 36.691139 42.455343 36.555672 C 43.09881 36.386339 43.674369 36.301424 44.182369 36.301424 z M 66.737582 36.301424 C 67.584248 36.301424 68.244723 36.77581 68.718856 37.724076 C 69.19299 38.672343 69.430441 39.823979 69.430441 41.178646 C 69.430441 42.973579 69.159437 44.852795 68.61757 46.817061 C 68.075704 48.747461 67.347608 50.372967 66.433208 51.693766 C 65.518808 52.9807 64.536484 53.624398 63.486617 53.624398 C 61.691684 53.624398 60.794275 52.845456 60.794275 51.28759 C 60.794275 50.915056 60.845121 50.525585 60.946721 50.119185 L 63.740866 37.216097 C 63.977932 36.911297 64.400955 36.691139 65.010555 36.555672 C 65.654022 36.386339 66.229582 36.301424 66.737582 36.301424 z M 117.13141 37.774719 C 117.23301 39.095519 117.45316 41.686571 117.79183 45.547371 C 117.99503 47.376171 118.09672 48.798294 118.09672 49.814294 C 118.09672 51.473761 117.67318 52.676243 116.82651 53.421309 C 115.97985 54.166376 114.9299 54.538554 113.67684 54.538554 C 112.5931 54.538554 111.79738 54.250774 111.28938 53.675041 C 110.81525 53.099307 110.57832 52.201898 110.57832 50.982699 C 110.78152 51.422965 111.23861 51.643123 111.94981 51.643123 C 112.59328 51.643123 113.11851 51.389412 113.52491 50.881413 C 113.96517 50.373413 114.18533 49.797336 114.18533 49.15387 C 114.18533 48.374936 113.79586 47.7826 113.01693 47.3762 C 114.94733 43.650867 116.31861 40.450186 117.13141 37.774719 z M -42.341031 42.646257 C -41.997729 42.648357 -41.369619 42.759375 -41.111132 42.888619 C -40.94958 42.974779 -40.680391 43.039514 -40.508068 43.039514 C -40.335742 43.039514 -40.013004 43.114583 -39.80837 43.200745 C -39.592967 43.286905 -39.204972 43.362492 -38.957259 43.362492 C -38.246421 43.362492 -38.170942 43.448535 -38.332491 44.094747 C -38.504817 44.827121 -38.397348 45.236314 -37.955769 45.580961 C -36.954138 46.345646 -35.424658 45.710536 -35.424658 44.53658 C -35.424658 44.364257 -35.360009 44.191737 -35.284615 44.170195 C -35.219995 44.137885 -34.692282 44.180731 -34.13223 44.277681 C -33.572179 44.363841 -32.764349 44.482811 -32.355078 44.547432 C -30.793396 44.795149 -29.457959 45.0967 -29.371797 45.225944 C -29.328717 45.290564 -29.285498 45.591872 -29.285498 45.871899 C -29.285498 46.582731 -28.865546 47.024284 -28.208561 47.024284 C -27.831604 47.024284 -27.6916 46.960002 -27.325411 46.593819 C -27.077695 46.356876 -26.851893 46.162838 -26.83035 46.162838 C -26.79804 46.162838 -26.571718 46.248997 -26.334773 46.367476 C -26.08706 46.475177 -25.526816 46.711999 -25.085237 46.895093 C -24.643658 47.067416 -24.029864 47.315089 -23.739066 47.433561 L -23.200598 47.649052 L -23.168042 48.220076 C -23.146482 48.543182 -23.082288 48.855237 -23.017663 48.930627 C -22.953043 49.016787 -22.931175 49.29713 -22.974255 49.652547 C -23.11427 50.761879 -22.532777 51.440035 -21.423445 51.440035 C -21.111108 51.440035 -20.626532 51.526038 -20.346508 51.62297 C -19.861847 51.795294 -19.808138 51.795716 -19.345019 51.612634 C -19.075763 51.515704 -18.752259 51.332243 -18.612247 51.224544 C -18.483006 51.106072 -18.310999 51.00957 -18.246378 51.00957 C -18.052512 51.00957 -16.45852 53.497091 -15.661523 55.037231 C -14.810679 56.663535 -14.756907 56.771342 -14.379947 57.363704 C -13.819898 58.225323 -13.108608 59.119498 -12.279301 59.981116 L -11.460746 60.820858 L -11.493302 61.704008 C -11.514862 62.199437 -11.600763 62.662746 -11.665384 62.748905 C -11.880787 63.007392 -12.160961 63.804257 -12.160961 64.159672 C -12.160961 65.247466 -10.847291 66.30321 -9.4794714 66.30321 C -8.9194199 66.30321 -8.7791657 66.259932 -8.3591264 65.936825 C -7.7344531 65.462937 -7.4434726 65.312111 -7.3142289 65.387504 C -7.2496049 65.419814 -6.9802564 65.419722 -6.6894608 65.376652 C -6.2801954 65.322802 -6.0975684 65.215143 -5.7313798 64.838184 C -5.2144078 64.310446 -5.1602558 64.299968 -4.3309485 64.53691 C -3.8570586 64.676922 -3.3724017 64.698412 -1.950732 64.666101 C -0.22749549 64.623021 0.33224615 64.536874 1.4092696 64.192228 C 1.6785254 64.106068 2.3680667 63.998193 2.938892 63.965885 C 4.1343826 63.890495 4.3498756 63.976875 4.2421717 64.472314 C 4.2098637 64.644637 4.2421449 64.935181 4.3067672 65.11827 C 4.4036972 65.3983 4.3819355 65.549018 4.2096155 65.925972 C 3.9511282 66.486027 3.9404673 66.647821 4.155872 67.046318 C 4.6189934 67.951018 5.5237893 68.177065 6.2777063 67.573934 C 6.6869744 67.250828 6.7190041 67.240296 6.9882573 67.401851 C 7.7744825 67.86497 8.6255403 67.70297 9.0563481 67.002909 L 9.3038782 66.593632 L 9.5622604 66.906274 C 9.7022726 67.078598 10.079413 67.54174 10.402519 67.929468 C 10.973339 68.6403 11.964042 69.437153 12.96567 70.018746 C 13.891913 70.546484 13.493766 70.708131 11.856694 70.438875 C 11.232021 70.341945 10.423942 70.234075 10.046985 70.212533 C 9.4761632 70.158683 9.3364034 70.115733 9.1963912 69.889555 C 8.9594489 69.523369 8.2915802 69.211043 7.7530685 69.211043 C 7.1822484 69.211043 6.6869171 69.512492 6.2022587 70.147937 C 5.6960578 70.81569 5.5558721 71.332508 5.7712773 71.827938 L 5.9330245 72.216028 L 5.5237472 72.592749 C 5.0713971 73.012788 4.1448793 73.734281 4.0587203 73.734281 L 4.0582036 73.734281 C 4.0579538 73.734245 4.0569004 73.733838 4.0566533 73.733765 L 4.0561365 73.733765 C 4.0261442 73.715745 4.0162465 73.421784 4.0266809 73.077474 C 4.0374499 72.463572 4.0159554 72.398822 3.6928512 72.108024 C 2.9281657 71.418734 1.8402511 71.93561 1.8402511 72.980322 C 1.8402511 73.163417 1.9154035 73.433119 2.0123336 73.583903 C 2.1092686 73.723915 2.1634142 73.885422 2.1203374 73.917733 C 2.0557134 73.993123 1.8618938 73.928119 0.49408003 73.3896 C -0.67987618 72.937252 -1.2833219 72.786586 -2.6080562 72.657345 C -4.5682297 72.463479 -5.6126775 72.657229 -7.6051672 73.594238 C -8.1544475 73.852722 -8.650041 74.057776 -8.7146602 74.057776 C -8.7685132 74.057776 -8.9729688 74.132759 -9.166829 74.208154 C -9.3606945 74.294314 -9.8562853 74.499208 -10.276322 74.649988 C -11.030239 74.940784 -12.581024 75.565591 -13.184155 75.824076 C -14.530432 76.416435 -14.63833 76.41606 -14.63833 75.909859 C -14.63833 75.371353 -14.853749 74.854725 -15.252246 74.391606 L -15.639819 73.928585 L -15.446032 73.422156 C -15.036764 72.388218 -15.122885 71.978917 -15.984501 70.901896 C -16.846122 69.824875 -17.406252 69.641844 -18.580208 70.094194 C -18.978708 70.244978 -19.355578 70.503174 -19.657145 70.804744 L -20.109314 71.289469 L -20.658634 71.106535 C -21.326389 70.89113 -21.929504 70.880265 -22.424934 71.095683 C -22.801891 71.257238 -23.469832 71.839146 -23.469832 72.022241 C -23.469832 72.076091 -23.566772 72.118876 -23.674471 72.118876 C -23.900644 72.118876 -25.235973 70.557228 -25.419067 70.083341 C -25.515997 69.846396 -25.473158 69.771016 -25.042346 69.40483 C -24.460758 68.898632 -24.277321 68.435523 -24.385022 67.638529 C -24.535805 66.443033 -25.505559 65.700097 -26.754903 65.829338 L -27.303706 65.893933 L -27.497493 64.504354 C -27.605194 63.75044 -27.670009 62.974972 -27.65924 62.802649 C -27.61616 62.501082 -27.584078 62.479429 -27.07788 62.447115 C -26.647072 62.414805 -26.474674 62.350423 -26.183878 62.070394 C -25.473046 61.39187 -25.333181 60.57334 -25.796305 59.894816 C -26.011708 59.57171 -26.06565 59.399529 -26.011796 59.097965 C -25.817931 57.8917 -25.817841 57.827042 -26.000944 57.460856 C -26.216349 57.062357 -26.399381 56.879054 -26.808646 56.685193 C -26.95943 56.609803 -27.293185 56.416199 -27.540901 56.243876 C -27.885545 56.006931 -28.176259 55.909798 -28.617838 55.87749 C -29.285591 55.83441 -29.597854 55.931244 -30.104052 56.340511 L -30.427547 56.609745 L -30.966015 55.87749 C -31.429133 55.231277 -32.667659 53.798712 -33.680061 52.732463 C -33.927774 52.463204 -34.014001 52.291032 -33.960148 52.140251 C -33.917068 52.021779 -33.862828 51.698355 -33.841292 51.418331 C -33.808982 51.138307 -33.722817 50.858619 -33.636653 50.783228 C -33.539723 50.707838 -33.486275 50.449117 -33.486275 50.07216 C -33.486275 49.555191 -33.529227 49.447414 -33.809252 49.178158 C -34.487776 48.542716 -35.640244 48.6721 -36.264917 49.469096 C -36.620332 49.899904 -36.738504 49.910998 -37.244702 49.512504 C -37.578579 49.254017 -38.171274 48.855416 -38.785176 48.478459 C -38.882106 48.424609 -39.334234 48.177016 -39.775813 47.950842 L -40.594368 47.519861 L -40.594368 46.797941 C -40.594368 46.119417 -40.615948 46.054859 -40.93905 45.7856 C -41.240617 45.527116 -41.359082 45.495072 -41.8222 45.548922 C -42.177618 45.581232 -42.403782 45.667211 -42.500712 45.796452 C -42.586872 45.914925 -42.748544 46.119544 -42.856245 46.270325 C -43.028568 46.507272 -43.082545 46.528924 -43.416418 46.42122 C -43.750295 46.302748 -44.180933 46.1841 -45.570292 45.7856 C -45.914938 45.68867 -46.19506 45.570298 -46.19506 45.527218 C -46.19506 45.473368 -46.065757 45.215031 -45.914974 44.935006 C -45.667258 44.482659 -45.623949 44.45015 -45.408544 44.56862 C -45.279303 44.63324 -44.80566 44.697811 -44.353312 44.697811 C -43.674788 44.708581 -43.480573 44.665491 -43.28671 44.493172 C -42.942061 44.180837 -42.640755 43.535001 -42.640755 43.114962 C -42.640755 42.921099 -42.608397 42.716291 -42.565307 42.68398 C -42.538377 42.65705 -42.455463 42.645587 -42.341031 42.646257 z M -33.551387 46.26464 C -33.581843 46.263787 -33.612257 46.264192 -33.642338 46.266191 C -33.786729 46.275791 -33.922261 46.318739 -34.003039 46.399516 C -34.196902 46.593381 -34.153852 47.078466 -33.938444 47.272331 C -33.399935 47.767761 -32.710644 47.131944 -33.055293 46.474963 C -33.125976 46.345382 -33.338193 46.270616 -33.551387 46.26464 z M -28.323282 48.759578 C -28.386562 48.758278 -28.456283 48.79055 -28.617838 48.85518 C -29.177886 49.081353 -29.134837 50.018176 -28.553243 50.190499 C -28.068582 50.330511 -27.670092 50.05099 -27.670092 49.5771 C -27.670092 49.167832 -27.745416 49.038355 -28.068518 48.866032 C -28.203146 48.796022 -28.26001 48.760925 -28.323282 48.759578 z M -23.652766 52.086507 C -24.040497 52.086507 -24.191649 52.150918 -24.450134 52.398633 C -24.687081 52.646347 -24.762259 52.818552 -24.762259 53.130888 C -24.762259 53.626317 -24.503861 53.917489 -23.889961 54.132894 C -23.394529 54.315989 -22.941805 54.154353 -22.683317 53.712764 C -22.414061 53.249646 -22.457257 52.894036 -22.834212 52.463228 C -23.125007 52.140122 -23.232729 52.086507 -23.652766 52.086507 z M -30.207922 52.351607 C -30.290042 52.352907 -30.373777 52.360799 -30.438399 52.376929 L -30.438399 52.377445 C -30.826127 52.452835 -31.224397 53.012451 -31.224397 53.47557 C -31.224397 54.089472 -30.847467 54.391276 -30.072013 54.391276 C -29.555041 54.391276 -29.447076 54.358819 -29.220902 54.100338 C -29.08089 53.928015 -28.96252 53.669678 -28.96252 53.508126 C -28.96252 53.174249 -29.436399 52.409485 -29.641031 52.409485 C -29.716421 52.409485 -29.867243 52.387587 -29.985713 52.366077 C -30.044953 52.355307 -30.125801 52.350257 -30.207922 52.351607 z M -18.409159 54.467757 C -18.523591 54.466457 -18.644479 54.498729 -18.806034 54.563359 C -19.398393 54.800301 -19.67884 55.877286 -19.269572 56.394255 C -19.097249 56.620432 -18.978404 56.663489 -18.472204 56.663489 C -17.675207 56.663489 -17.330672 56.361901 -17.330672 55.640295 C -17.330672 55.123323 -17.514083 54.854238 -18.052592 54.574211 C -18.187222 54.504201 -18.294727 54.469101 -18.409159 54.467757 z M -22.951517 55.658382 C -23.077792 55.662582 -23.200303 55.71192 -23.297233 55.812895 C -23.749581 56.265243 -23.18995 57.126993 -22.672981 56.782345 C -22.285253 56.534631 -22.209801 56.318855 -22.392895 55.984977 C -22.520792 55.769575 -22.741054 55.651334 -22.951517 55.658382 z M -15.320459 58.244271 C -15.44835 58.241571 -15.575309 58.311486 -15.790714 58.451493 C -16.275373 58.75306 -16.436936 59.281045 -16.199991 59.776477 C -15.995355 60.196513 -15.618077 60.336266 -15.068794 60.217794 C -14.627218 60.120864 -14.401461 59.754568 -14.444543 59.183748 C -14.476853 58.796019 -14.530632 58.677834 -14.842968 58.473197 C -15.063755 58.322414 -15.192562 58.246967 -15.320459 58.244271 z M -21.081347 60.397111 C -21.213284 60.393111 -21.353634 60.427876 -21.585192 60.49788 C -22.586825 60.788676 -22.95267 62.177949 -22.220296 62.867244 C -21.994119 63.082647 -21.83241 63.125627 -21.315441 63.125627 C -20.798469 63.125627 -20.637194 63.082562 -20.400252 62.856392 C -19.527863 62.048624 -19.646505 60.93919 -20.626595 60.529919 C -20.825845 60.443759 -20.949412 60.401151 -21.081347 60.397111 z M -16.130745 63.516817 C -16.267717 63.520817 -16.381584 63.615064 -16.587565 63.81499 C -16.770656 64.008851 -16.89969 64.245728 -16.89969 64.418054 C -16.89969 64.74116 -16.372012 65.333761 -16.091988 65.333761 C -15.294991 65.333761 -15.004434 64.030798 -15.715266 63.664612 C -15.903745 63.565662 -16.024208 63.513724 -16.130745 63.516817 z M -21.205371 65.987984 C -21.37231 65.979884 -21.541734 66.022831 -21.670975 66.119759 C -21.778677 66.184379 -21.886711 66.421635 -21.919022 66.63704 C -22.037495 67.326335 -21.423596 67.703277 -20.831233 67.315552 C -20.497358 67.100146 -20.454221 66.432423 -20.755786 66.163167 C -20.874261 66.055463 -21.038432 65.996064 -21.205371 65.987984 z M -1.7786495 66.626188 C -2.3494721 66.626188 -2.4569723 66.658647 -2.7046911 66.917126 C -3.0924168 67.326396 -3.4369462 68.252459 -3.4369462 68.866361 C -3.4369462 69.307938 -3.3835797 69.437096 -3.0927811 69.73866 C -2.7265952 70.11562 -2.2419569 70.3847 -1.5311194 70.600106 C -1.1433937 70.729347 -1.0461945 70.718693 -0.68000852 70.546362 C -0.44306357 70.427892 -0.09856051 70.104822 0.11684207 69.803255 C 0.46149096 69.318596 0.49408003 69.210811 0.49408003 68.499976 C 0.49408003 67.875303 0.45083152 67.659901 0.26773725 67.412187 C -0.044598067 66.992156 -0.97088449 66.636957 -1.7786495 66.626188 z M -10.708337 67.932052 C -10.876623 67.923952 -11.046444 67.994176 -11.23492 68.144958 C -11.450325 68.317284 -11.515006 68.456875 -11.515006 68.76921 C -11.515006 69.286182 -11.23496 69.555725 -10.696451 69.555725 C -9.9209975 69.555725 -9.6192022 68.726362 -10.190022 68.18785 C -10.373116 68.026296 -10.540051 67.940127 -10.708337 67.932052 z M -8.2263179 70.519491 C -8.4292692 70.520591 -8.5258555 70.5786 -8.671252 70.740149 C -9.1128336 71.214039 -9.1883405 71.461969 -9.0267859 71.92509 C -8.8544628 72.452828 -8.315816 72.818789 -7.8526973 72.711088 C -7.0664694 72.538765 -6.6895819 71.365041 -7.2496334 70.837301 C -7.4111853 70.686517 -7.7023808 70.567821 -7.9824052 70.53551 C -8.0793382 70.52474 -8.1586666 70.519151 -8.2263179 70.519491 z " />
  </g>
</svg>
